<?xml version="1.0" standalone="no"?>
<!DOCTYPE svg PUBLIC "-//W3C//DTD SVG 20010904//EN"
 "http://www.w3.org/TR/2001/REC-SVG-20010904/DTD/svg10.dtd">
<svg version="1.0" xmlns="http://www.w3.org/2000/svg"
 width="626.000000pt" height="626.000000pt" viewBox="0 0 626.000000 626.000000"
 preserveAspectRatio="xMidYMid meet">

<g transform="translate(0.000000,626.000000) scale(0.100000,-0.100000)"
fill="#000000" stroke="none">
<path d="M1268 5280 c-82 -14 -150 -69 -187 -150 -20 -45 -21 -55 -21 -1945
l0 -1900 24 -50 c28 -59 76 -107 131 -132 38 -17 134 -18 1909 -21 1248 -1
1888 1 1925 8 82 15 145 61 181 134 l30 59 0 1901 0 1901 -24 50 c-25 55 -79
108 -135 134 -33 15 -203 16 -1911 17 -1031 1 -1896 -2 -1922 -6z m1517 -824
c119 -25 172 -42 261 -87 214 -105 347 -314 361 -563 19 -349 -138 -611 -443
-744 -152 -66 -303 -92 -531 -92 l-163 0 0 -410 0 -410 -260 0 -260 0 0 1144
0 1143 153 17 c222 24 217 24 522 21 215 -2 299 -6 360 -19z m1542 -601 c107
-14 256 -52 293 -75 12 -7 10 -25 -13 -122 -34 -142 -59 -242 -63 -246 -1 -2
-24 8 -51 21 -137 68 -360 92 -441 47 -88 -49 -92 -151 -9 -208 23 -16 107
-55 187 -86 195 -77 262 -116 346 -201 61 -61 75 -82 100 -151 26 -70 29 -91
28 -184 -3 -156 -41 -247 -151 -351 -60 -58 -108 -87 -198 -121 -241 -90 -622
-78 -862 28 -29 12 -53 26 -53 30 0 17 83 350 89 356 4 5 44 -8 90 -27 134
-57 231 -78 356 -79 95 0 116 3 152 22 50 26 73 65 73 123 0 36 -6 48 -38 78
-37 35 -66 49 -258 125 -50 19 -113 48 -140 62 -54 30 -174 127 -188 153 -5 9
-18 26 -28 38 -11 12 -31 51 -44 88 -72 199 15 436 212 572 55 38 160 81 241
97 141 29 213 31 370 11z"/>
<path d="M2415 4084 c-22 -2 -64 -7 -92 -10 l-53 -5 0 -343 0 -343 38 -7 c125
-20 297 3 401 56 163 83 232 319 142 487 -18 32 -73 86 -112 109 -64 39 -218
65 -324 56z"/>
</g>
</svg>
