<svg version="1.1" id="Layer_1" xmlns="http://www.w3.org/2000/svg" xmlns:xlink="http://www.w3.org/1999/xlink" x="0px" y="0px"
	 width="100%" viewBox="0 0 128 128" enable-background="new 0 0 128 128" xml:space="preserve">
<path fill="#010101" opacity="1.000000" stroke="none" 
	d="
M1.000000,118.000000 
	C1.000000,82.979103 1.000000,47.958210 1.331409,12.339751 
	C3.111765,5.702283 7.490257,2.754187 13.000000,1.000000 
	C47.354229,1.000000 81.708458,1.000000 116.878082,1.091934 
	C123.676079,3.004307 127.293861,7.087555 129.000000,13.000000 
	C129.000000,47.354229 129.000000,81.708458 128.999496,116.906067 
	C126.788994,123.408356 123.056908,127.443916 117.000000,129.000000 
	C82.645775,129.000000 48.291542,129.000000 13.117845,128.919891 
	C6.621895,127.217697 3.312801,123.128067 1.000000,118.000000 
M63.522976,21.990793 
	C57.913315,20.992920 54.810974,22.399725 54.215572,27.895443 
	C53.534275,34.184013 54.312637,40.626617 54.386219,47.003109 
	C54.415451,49.536877 54.942329,52.346695 54.060238,54.559494 
	C50.585686,63.275681 46.833496,71.897644 42.745220,80.341972 
	C41.625851,82.654030 39.076393,84.342728 37.007339,86.111809 
	C32.498589,89.966858 27.583544,93.396683 23.409180,97.574448 
	C20.832417,100.153313 19.284908,103.944328 22.386158,107.394043 
	C25.451811,110.804153 29.591938,111.242332 33.526630,107.741600 
	C37.812050,103.928810 42.258614,99.692284 44.838661,94.710251 
	C48.646278,87.357819 54.728775,85.195831 61.898376,84.019897 
	C63.044579,83.831902 64.188751,83.630569 65.331268,83.421227 
	C72.511955,82.105560 79.436241,81.274742 86.780342,83.994598 
	C91.854012,85.873596 97.771538,85.653664 103.334831,85.971153 
	C107.411987,86.203835 109.768860,82.942101 109.656425,79.731041 
	C109.576416,77.446022 106.970047,73.889153 104.836403,73.309357 
	C99.839928,71.951607 94.453453,71.998230 89.217377,71.567307 
	C86.950455,71.380745 84.319412,72.132324 82.450134,71.226746 
	C75.719887,67.966248 72.088402,61.776386 68.455063,55.526047 
	C65.771965,50.910381 66.120003,46.648800 67.605042,41.843307 
	C68.615906,38.572212 69.284348,34.825745 68.707108,31.537384 
	C68.130005,28.249802 65.812721,25.267691 63.522976,21.990793 
z"/>
<path fill="#F6F6F6" opacity="1.000000" stroke="none" 
	d="
M129.000000,12.520824 
	C127.293861,7.087555 123.676079,3.004307 117.346741,1.091934 
	C120.921982,1.000000 124.843964,1.000000 129.000000,1.000000 
	C129.000000,4.678595 129.000000,8.360122 129.000000,12.520824 
z"/>
<path fill="#F6F6F6" opacity="1.000000" stroke="none" 
	d="
M117.479172,129.000000 
	C123.056908,127.443916 126.788994,123.408356 128.999496,117.374725 
	C129.000000,120.921982 129.000000,124.843964 129.000000,129.000000 
	C125.321404,129.000000 121.639877,129.000000 117.479172,129.000000 
z"/>
<path fill="#F6F6F6" opacity="1.000000" stroke="none" 
	d="
M12.520824,1.000000 
	C7.490257,2.754187 3.111765,5.702283 1.331409,11.871094 
	C1.000000,8.408027 1.000000,4.816054 1.000000,1.000000 
	C4.678767,1.000000 8.360208,1.000000 12.520824,1.000000 
z"/>
<path fill="#F6F6F6" opacity="1.000000" stroke="none" 
	d="
M1.000000,118.482956 
	C3.312801,123.128067 6.621895,127.217697 12.649187,128.919891 
	C9.082829,129.000000 5.165658,129.000000 1.000000,129.000000 
	C1.000000,125.657646 1.000000,122.311783 1.000000,118.482956 
z"/>
<path fill="#F6F6F6" opacity="1.000000" stroke="none" 
	d="
M63.890625,22.071232 
	C65.812721,25.267691 68.130005,28.249802 68.707108,31.537384 
	C69.284348,34.825745 68.615906,38.572212 67.605042,41.843307 
	C66.120003,46.648800 65.771965,50.910381 68.455063,55.526047 
	C72.088402,61.776386 75.719887,67.966248 82.450134,71.226746 
	C84.319412,72.132324 86.950455,71.380745 89.217377,71.567307 
	C94.453453,71.998230 99.839928,71.951607 104.836403,73.309357 
	C106.970047,73.889153 109.576416,77.446022 109.656425,79.731041 
	C109.768860,82.942101 107.411987,86.203835 103.334831,85.971153 
	C97.771538,85.653664 91.854012,85.873596 86.780342,83.994598 
	C79.436241,81.274742 72.511955,82.105560 65.331268,83.421227 
	C64.188751,83.630569 63.044579,83.831902 61.898376,84.019897 
	C54.728775,85.195831 48.646278,87.357819 44.838661,94.710251 
	C42.258614,99.692284 37.812050,103.928810 33.526630,107.741600 
	C29.591938,111.242332 25.451811,110.804153 22.386158,107.394043 
	C19.284908,103.944328 20.832417,100.153313 23.409180,97.574448 
	C27.583544,93.396683 32.498589,89.966858 37.007339,86.111809 
	C39.076393,84.342728 41.625851,82.654030 42.745220,80.341972 
	C46.833496,71.897644 50.585686,63.275681 54.060238,54.559494 
	C54.942329,52.346695 54.415451,49.536877 54.386219,47.003109 
	C54.312637,40.626617 53.534275,34.184013 54.215572,27.895443 
	C54.810974,22.399725 57.913315,20.992920 63.890625,22.071232 
M57.291954,79.752731 
	C62.494202,78.305122 67.696449,76.857506 72.587494,75.496490 
	C68.734146,70.054619 64.690651,64.344208 60.705376,58.716034 
	C57.136932,66.452812 53.627491,74.061668 49.883823,82.178352 
	C52.519218,81.312454 54.526115,80.653061 57.291954,79.752731 
M99.090187,77.065361 
	C96.226501,76.884514 93.362808,76.703667 90.499123,76.522820 
	C90.431808,76.974709 90.364494,77.426605 90.297188,77.878494 
	C94.772736,78.856293 99.248283,79.834084 103.723839,80.811882 
	C103.866066,80.289795 104.008293,79.767708 104.150520,79.245621 
	C102.722855,78.593819 101.295189,77.942017 99.090187,77.065361 
M33.845230,93.355934 
	C31.340012,96.280273 28.834795,99.204605 26.329576,102.128937 
	C26.900723,102.619461 27.471869,103.109993 28.043015,103.600525 
	C31.400740,99.698898 34.758465,95.797279 38.116188,91.895660 
	C37.727859,91.535423 37.339531,91.175179 36.951202,90.814941 
	C36.091732,91.507973 35.232262,92.201012 33.845230,93.355934 
M61.502285,31.995712 
	C61.502285,29.711330 61.502285,27.426947 61.502285,25.142565 
	C60.948132,25.148022 60.393974,25.153479 59.839821,25.158936 
	C59.839821,29.500397 59.839821,33.841858 59.839821,38.183315 
	C60.185909,38.184254 60.532001,38.185192 60.878090,38.186131 
	C61.009804,36.389297 61.141518,34.592468 61.502285,31.995712 
z"/>
<path fill="#0A0A0A" opacity="1.000000" stroke="none" 
	d="
M56.912483,79.873199 
	C54.526115,80.653061 52.519218,81.312454 49.883823,82.178352 
	C53.627491,74.061668 57.136932,66.452812 60.705376,58.716034 
	C64.690651,64.344208 68.734146,70.054619 72.587494,75.496490 
	C67.696449,76.857506 62.494202,78.305122 56.912483,79.873199 
z"/>
<path fill="#181818" opacity="1.000000" stroke="none" 
	d="
M99.478851,77.177788 
	C101.295189,77.942017 102.722855,78.593819 104.150520,79.245621 
	C104.008293,79.767708 103.866066,80.289795 103.723839,80.811882 
	C99.248283,79.834084 94.772736,78.856293 90.297188,77.878494 
	C90.364494,77.426605 90.431808,76.974709 90.499123,76.522820 
	C93.362808,76.703667 96.226501,76.884514 99.478851,77.177788 
z"/>
<path fill="#101010" opacity="1.000000" stroke="none" 
	d="
M34.109013,93.124985 
	C35.232262,92.201012 36.091732,91.507973 36.951202,90.814941 
	C37.339531,91.175179 37.727859,91.535423 38.116188,91.895660 
	C34.758465,95.797279 31.400740,99.698898 28.043015,103.600525 
	C27.471869,103.109993 26.900723,102.619461 26.329576,102.128937 
	C28.834795,99.204605 31.340012,96.280273 34.109013,93.124985 
z"/>
<path fill="#181818" opacity="1.000000" stroke="none" 
	d="
M61.387756,32.395676 
	C61.141518,34.592468 61.009804,36.389297 60.878090,38.186131 
	C60.532001,38.185192 60.185909,38.184254 59.839821,38.183315 
	C59.839821,33.841858 59.839821,29.500397 59.839821,25.158936 
	C60.393974,25.153479 60.948132,25.148022 61.502285,25.142565 
	C61.502285,27.426947 61.502285,29.711330 61.387756,32.395676 
z"/>
</svg>