<?xml version="1.0" standalone="no"?>
<!DOCTYPE svg PUBLIC "-//W3C//DTD SVG 20010904//EN"
 "http://www.w3.org/TR/2001/REC-SVG-20010904/DTD/svg10.dtd">
<svg version="1.0" xmlns="http://www.w3.org/2000/svg"
 width="626.000000pt" height="626.000000pt" viewBox="0 0 626.000000 626.000000"
 preserveAspectRatio="xMidYMid meet">
<metadata>
Created by potrace 1.16, written by Peter Selinger 2001-2019
</metadata>
<g transform="translate(0.000000,626.000000) scale(0.100000,-0.100000)"
fill="#000000" stroke="none">
<path d="M1242 5134 c-57 -28 -96 -69 -123 -129 -18 -38 -19 -121 -19 -1876
l0 -1835 26 -52 c28 -57 69 -96 129 -123 38 -18 121 -19 1876 -19 l1835 0 52
26 c57 28 96 69 123 129 18 38 19 121 19 1875 0 1754 -1 1837 -19 1875 -27 60
-66 101 -123 129 l-52 26 -1836 0 -1836 0 -52 -26z m3051 -950 c53 -19 83 -47
115 -109 54 -107 20 -232 -82 -297 -48 -31 -56 -33 -141 -33 -81 0 -94 3 -132
27 -88 57 -125 148 -103 252 30 147 181 217 343 160z m-1196 -156 c37 -114 69
-218 173 -553 44 -143 91 -294 104 -335 13 -41 37 -120 54 -175 17 -55 54
-174 83 -265 28 -91 60 -192 70 -225 9 -33 29 -96 42 -140 72 -231 84 -277 73
-281 -6 -2 -119 -3 -250 -2 l-239 3 -8 25 c-12 42 -76 258 -113 380 l-34 115
-300 3 -300 2 -5 -22 c-5 -27 -77 -287 -129 -471 l-11 -37 -236 2 c-229 3
-236 4 -235 23 1 11 32 119 69 240 37 121 73 240 81 265 7 25 26 88 42 140 16
52 42 136 57 185 15 50 40 131 55 180 70 229 84 276 110 360 15 50 44 144 65
210 37 121 73 240 105 350 10 33 23 72 29 88 l11 27 303 0 304 0 30 -92z
m1236 -478 l87 0 -2 -747 -3 -748 -230 0 -230 0 -3 747 -2 747 22 5 c13 2 79
3 148 0 69 -2 164 -4 213 -4z"/>
<path d="M2715 3653 c-25 -106 -62 -252 -130 -503 -12 -47 -30 -107 -39 -133
-32 -94 -47 -88 207 -85 216 3 222 4 219 23 -3 20 -43 160 -88 305 -27 88 -53
183 -100 370 -19 74 -36 136 -38 138 -2 1 -16 -50 -31 -115z"/>
</g>
</svg>
