<svg version="1.1" id="Layer_1" xmlns="http://www.w3.org/2000/svg" xmlns:xlink="http://www.w3.org/1999/xlink" x="0px" y="0px"
	 width="100%" viewBox="0 0 227 222" enable-background="new 0 0 227 222" xml:space="preserve">
<path fill="#020C1E" opacity="1.000000" stroke="none" 
	d="
M1.000000,191.000000 
	C1.000000,138.645767 1.000000,86.291542 1.352460,33.365387 
	C1.940252,32.177803 2.201148,31.570572 2.407109,30.945248 
	C5.917324,20.287704 11.174905,11.139103 22.298149,6.618598 
	C26.013014,5.108870 29.440920,2.893049 33.000000,1.000000 
	C85.354225,1.000000 137.708450,1.000000 190.584625,1.305012 
	C192.247330,3.298302 193.160400,6.189250 194.570282,6.456202 
	C199.384171,7.367665 204.372864,7.355993 209.146530,7.834884 
	C208.998215,7.973208 209.284531,7.685194 209.214066,8.110052 
	C208.970230,12.720950 209.016586,16.540592 214.936661,16.682276 
	C215.987579,16.707424 217.241623,19.180464 217.901459,20.735483 
	C218.335434,21.758247 217.871719,23.161919 217.819061,24.213856 
	C220.418243,24.779722 222.549957,25.243818 224.766418,25.818863 
	C224.851166,25.929811 224.816864,26.206917 224.633392,26.537937 
	C224.914383,27.583157 225.378845,28.297358 225.922531,29.328426 
	C226.667831,31.430197 227.333923,33.215099 228.000000,35.000000 
	C228.000000,86.687561 228.000000,138.375122 227.654175,190.646820 
	C227.052246,191.839569 226.756104,192.434723 226.545914,193.058807 
	C221.963852,206.664017 214.503967,217.308228 199.223984,220.232086 
	C197.052292,220.647644 195.069962,222.052841 193.000000,223.000000 
	C138.645767,223.000000 84.291542,223.000000 29.461176,222.649094 
	C27.641312,221.239868 26.297586,220.181549 24.929659,218.768585 
	C24.588980,215.774216 24.272505,213.134445 23.891548,209.956833 
	C22.521246,210.746490 21.095459,211.568130 19.454382,212.513840 
	C15.831899,208.430283 12.139561,204.376984 8.599809,200.194534 
	C7.800019,199.249527 7.121344,197.865036 7.092412,196.665817 
	C6.993131,192.550858 4.515090,191.286819 1.000000,191.000000 
M136.030487,59.005386 
	C136.030487,59.005386 136.035248,58.931778 135.852356,58.520683 
	C135.681656,58.260017 135.449875,58.076469 134.994690,57.576431 
	C134.994690,57.576431 134.891663,57.163322 135.161240,56.541290 
	C136.058548,52.670128 133.332321,51.854023 130.556168,50.983387 
	C125.152008,49.288589 119.770683,47.520981 114.872986,45.942451 
	C112.390465,46.673798 109.994957,47.174667 107.768700,48.088066 
	C105.084145,49.189499 102.543228,50.641064 99.275345,52.097870 
	C97.760139,53.628731 96.244926,55.159592 94.196533,56.963596 
	C93.725189,57.576611 93.253853,58.189625 92.195427,59.072872 
	C91.731094,59.995785 91.266762,60.918697 90.447784,62.267841 
	C90.196503,62.758259 89.945221,63.248672 89.084511,64.064041 
	C86.991203,69.641335 84.897896,75.218636 82.172379,81.102898 
	C81.173782,84.130402 80.175194,87.157898 79.130577,90.797852 
	C79.104454,91.203094 79.078323,91.608345 78.591805,92.531952 
	C78.063362,94.016243 77.534920,95.500534 76.537773,97.471916 
	C75.436279,99.674805 74.334785,101.877701 72.532684,104.133255 
	C69.278503,108.858810 67.484230,105.243851 65.253098,102.413261 
	C65.675972,112.580780 66.046288,122.317589 56.139355,129.003510 
	C54.171577,129.165421 52.203800,129.327332 50.236023,129.489227 
	C50.111774,129.957169 49.987526,130.425110 49.863277,130.893051 
	C50.886089,131.527985 52.334610,132.937607 52.852203,132.653183 
	C54.428322,131.787033 55.645317,130.267380 57.720402,129.161606 
	C61.169384,133.516006 56.344570,135.528595 55.780247,139.505066 
	C53.934044,137.573074 52.909874,136.501328 52.010620,135.560287 
	C52.010620,146.025009 52.010620,156.288635 52.010620,166.646927 
	C54.238216,166.758881 56.617630,166.878479 59.633659,167.053955 
	C60.421371,167.367294 61.209084,167.680634 62.072906,168.673096 
	C63.048012,170.114990 64.023117,171.556885 65.204758,173.778778 
	C70.608658,173.971756 76.012260,174.178116 81.417770,174.300064 
	C81.600105,174.304153 81.801636,173.457458 82.927193,173.003281 
	C87.618912,173.002808 92.310638,173.002319 97.209152,173.779251 
	C97.408615,174.034866 97.581253,174.485855 97.811470,174.517471 
	C103.393066,175.283905 108.975258,176.062042 114.579567,176.611633 
	C114.963783,176.649323 115.521606,174.916672 116.295876,173.332275 
	C116.530380,171.891235 116.764885,170.450195 117.726723,168.982437 
	C120.150826,166.989944 122.574928,164.997437 125.762848,162.998611 
	C127.369415,162.167725 128.975983,161.336838 130.582550,160.505951 
	C129.384811,159.002594 128.187057,157.499252 126.987297,155.196365 
	C127.005844,154.130539 127.024391,153.064697 127.582672,152.201721 
	C130.415039,150.578751 132.026031,148.404846 131.154495,144.915970 
	C130.063049,140.546738 127.656876,137.622635 122.314659,137.010727 
	C121.873558,136.999832 121.432465,136.988937 120.905571,136.259293 
	C118.389977,133.871613 116.144470,131.049866 113.259972,129.255081 
	C111.459320,128.134659 109.594070,129.287552 110.452354,132.552856 
	C108.172844,133.117218 105.893333,133.681580 102.865143,134.376678 
	C101.622795,134.167557 100.380447,133.958420 99.161911,133.090607 
	C98.865822,132.089386 98.569725,131.088150 98.932930,129.897049 
	C99.636765,127.945229 100.340607,125.993408 101.285873,123.611015 
	C101.285873,123.611015 101.353302,123.122002 101.948990,122.803963 
	C102.941879,120.436897 103.934776,118.069832 105.322548,115.161728 
	C106.410721,112.489006 107.498894,109.816284 108.947937,106.678482 
	C109.345352,105.238480 109.742775,103.798477 110.766106,101.846207 
	C110.839409,101.586761 110.912712,101.327316 111.434479,100.630157 
	C111.954178,100.004669 112.473877,99.379189 113.773811,98.901596 
	C114.831284,98.967880 115.888756,99.034164 117.183540,99.664040 
	C117.757324,100.499321 118.331116,101.334610 118.965454,102.867157 
	C119.704910,104.573013 120.444359,106.278862 121.272987,108.659180 
	C121.888992,110.346451 122.504990,112.033730 123.029465,114.437393 
	C123.640244,116.719353 124.212753,119.012413 124.870071,121.280891 
	C126.102242,125.533203 130.948059,129.049667 128.133179,132.757568 
	C129.690247,135.622284 130.564163,137.681931 131.839554,139.452347 
	C133.173080,141.303436 134.892731,142.876373 136.430389,144.628815 
	C136.430389,144.628815 136.468506,144.674362 136.215988,145.468079 
	C137.439499,148.014832 138.662994,150.561584 139.989014,153.818024 
	C141.016541,155.864273 142.044083,157.910522 143.595123,160.247101 
	C144.051712,160.843277 144.508301,161.439438 145.272522,162.636276 
	C147.840988,164.113876 150.409454,165.591461 153.573273,167.618622 
	C161.816818,170.202347 166.548447,164.261917 172.581787,159.797852 
	C172.630493,159.176117 172.679199,158.554382 172.990646,157.227661 
	C173.262482,155.800385 173.534317,154.373093 173.948151,152.125412 
	C173.553589,149.748199 173.159012,147.370972 172.613754,144.312744 
	C171.117203,141.846512 169.620651,139.380280 168.064896,136.102020 
	C167.075638,133.058426 166.086395,130.014832 165.051941,126.236290 
	C163.986908,123.829933 162.921860,121.423576 161.766647,118.380104 
	C160.862198,116.977768 159.957748,115.575439 159.281738,113.932098 
	C159.418732,113.533707 159.306412,113.294151 158.938904,113.024780 
	C158.938904,113.024780 158.750168,113.026566 158.825714,112.261955 
	C156.889465,107.830704 154.953217,103.399452 152.974625,98.464005 
	C152.926208,98.302483 152.877777,98.140953 152.956284,97.481560 
	C152.787567,97.201233 152.618851,96.920906 152.445953,96.598206 
	C152.445953,96.598206 152.473038,96.563789 152.206314,95.895561 
	C151.373550,93.955482 150.540771,92.015411 149.650787,89.385483 
	C148.696732,87.285919 147.742661,85.186363 146.830185,82.452568 
	C146.487503,81.685539 146.144821,80.918503 145.935455,79.373154 
	C145.361542,77.844704 144.787613,76.316254 144.098984,74.039864 
	C142.847427,71.267998 141.595871,68.496140 140.183624,65.067352 
	C140.279953,63.858578 140.376282,62.649807 140.485382,61.280682 
	C139.222870,61.146194 138.281937,61.045967 137.094315,60.506752 
	C137.060074,60.342434 137.025833,60.178112 136.900513,59.509781 
	C136.628830,59.325245 136.357132,59.140709 136.030487,59.005386 
M163.343414,173.024261 
	C163.686081,172.424225 164.028748,171.824188 164.371414,171.224152 
	C162.245682,171.405945 160.119965,171.587753 157.994232,171.769562 
	C158.189423,173.177505 158.384598,174.585464 158.698257,176.848145 
	C160.761215,174.992462 161.726440,174.124222 163.343414,173.024261 
M121.355637,171.119186 
	C120.681679,171.058975 120.007729,170.998764 119.333771,170.938568 
	C119.505608,171.508163 119.677444,172.077774 119.849281,172.647369 
	C120.433540,172.328705 121.017792,172.010025 121.355637,171.119186 
z"/>
<path fill="#F8F8F9" opacity="1.000000" stroke="none" 
	d="
M193.468658,223.000000 
	C195.069962,222.052841 197.052292,220.647644 199.223984,220.232086 
	C214.503967,217.308228 221.963852,206.664017 226.545914,193.058807 
	C226.756104,192.434723 227.052246,191.839569 227.654175,191.115479 
	C228.000000,201.596527 228.000000,212.193039 228.000000,223.000000 
	C216.646637,223.000000 205.291977,223.000000 193.468658,223.000000 
z"/>
<path fill="#F8F8F9" opacity="1.000000" stroke="none" 
	d="
M224.816864,26.206917 
	C224.816864,26.206917 224.851166,25.929811 224.666840,25.464306 
	C221.129486,17.723940 216.468445,11.597270 209.284531,7.685194 
	C209.284531,7.685194 208.998215,7.973208 208.959656,7.540915 
	C203.614075,5.072415 198.307037,3.036209 193.000000,1.000001 
	C204.592178,1.000000 216.184372,1.000000 228.000000,1.000000 
	C228.000000,12.019889 228.000000,23.041286 228.000000,34.531342 
	C227.333923,33.215099 226.667831,31.430197 225.962585,29.021793 
	C225.554565,27.667833 225.185715,26.937374 224.816864,26.206917 
z"/>
<path fill="#F9F9FA" opacity="1.000000" stroke="none" 
	d="
M32.531342,1.000000 
	C29.440920,2.893049 26.013014,5.108870 22.298149,6.618598 
	C11.174905,11.139103 5.917324,20.287704 2.407109,30.945248 
	C2.201148,31.570572 1.940252,32.177803 1.352460,32.896729 
	C1.000000,22.406796 1.000000,11.813590 1.000000,1.000000 
	C11.353187,1.000000 21.707935,1.000000 32.531342,1.000000 
z"/>
<path fill="#F9F9FA" opacity="1.000000" stroke="none" 
	d="
M24.953865,219.123215 
	C26.297586,220.181549 27.641312,221.239868 28.992519,222.649094 
	C19.736439,223.000000 10.472876,223.000000 1.000000,223.000000 
	C1.000000,212.980072 1.000000,202.958694 1.359972,192.530182 
	C2.157576,193.162323 2.640683,194.185028 3.025826,195.243408 
	C7.028670,206.243317 13.863401,214.635162 24.953865,219.123215 
z"/>
<path fill="#060D15" opacity="1.000000" stroke="none" 
	d="
M24.929661,218.768585 
	C13.863401,214.635162 7.028670,206.243317 3.025826,195.243408 
	C2.640683,194.185028 2.157576,193.162323 1.359972,192.061523 
	C1.000000,192.000000 1.000000,191.500000 1.000000,191.250000 
	C4.515090,191.286819 6.993131,192.550858 7.092412,196.665817 
	C7.121344,197.865036 7.800019,199.249527 8.599809,200.194534 
	C12.139561,204.376984 15.831899,208.430283 19.454382,212.513840 
	C21.095459,211.568130 22.521246,210.746490 23.891548,209.956833 
	C24.272505,213.134445 24.588980,215.774216 24.929661,218.768585 
z"/>
<path fill="#10161F" opacity="1.000000" stroke="none" 
	d="
M192.666672,1.000001 
	C198.307037,3.036209 203.614075,5.072415 209.107971,7.402590 
	C204.372864,7.355993 199.384171,7.367665 194.570282,6.456202 
	C193.160400,6.189250 192.247330,3.298302 191.053284,1.305012 
	C191.444443,1.000000 191.888901,1.000000 192.666672,1.000001 
z"/>
<path fill="#0C0B22" opacity="1.000000" stroke="none" 
	d="
M58.997047,166.998077 
	C56.617630,166.878479 54.238216,166.758881 52.010620,166.646927 
	C52.010620,156.288635 52.010620,146.025009 52.010620,135.560287 
	C52.909874,136.501328 53.934044,137.573074 55.780247,139.505066 
	C56.344570,135.528595 61.169384,133.516006 57.360199,129.080811 
	C57.000000,129.000000 56.997868,128.997894 56.997868,128.997894 
	C66.046288,122.317589 65.675972,112.580780 65.253098,102.413261 
	C67.484230,105.243851 69.278503,108.858810 72.858406,104.468857 
	C72.734032,106.168602 72.283936,107.532753 71.584625,109.096146 
	C71.136566,110.124374 70.937729,110.953369 70.477707,112.023926 
	C68.202591,117.520256 66.188667,122.775017 63.951920,128.247711 
	C63.436039,129.224960 63.142979,129.984283 62.580952,130.983398 
	C60.277699,136.496979 58.243408,141.770752 56.027702,147.392883 
	C55.718536,148.768005 55.590786,149.794739 55.360775,151.102234 
	C55.237839,152.379837 55.217167,153.376663 55.146484,154.837326 
	C55.449139,157.521652 53.488388,160.957291 58.031631,160.968597 
	C57.995625,160.979431 58.049217,160.926620 58.030701,161.318390 
	C58.340473,163.472809 58.668762,165.235428 58.997047,166.998077 
z"/>
<path fill="#AA6CF9" opacity="1.000000" stroke="none" 
	d="
M55.463036,150.821487 
	C55.590786,149.794739 55.718536,148.768005 56.266365,147.632935 
	C57.606930,149.276627 58.527416,151.028625 59.447903,152.780640 
	C59.970642,152.985748 60.493378,153.190872 61.016117,153.395981 
	C59.719601,146.679352 62.226246,143.967590 68.112770,144.715729 
	C68.502762,144.765305 68.958923,144.256180 69.390915,144.018967 
	C78.641449,138.939133 87.912010,133.894806 97.101265,128.706436 
	C97.713837,128.360565 97.710556,126.923965 98.174911,125.748154 
	C99.252220,125.014946 100.148331,124.528259 101.044434,124.041580 
	C100.340607,125.993408 99.636765,127.945229 98.286743,130.143311 
	C96.501953,131.284058 95.397415,132.226364 94.219398,133.065521 
	C84.336021,140.106003 74.155930,146.769974 64.656319,154.293671 
	C59.262009,158.565994 58.994083,158.994751 56.746529,152.236603 
	C56.562672,151.683762 55.902096,151.289459 55.463036,150.821487 
z"/>
<path fill="#9C6FF6" opacity="1.000000" stroke="none" 
	d="
M55.360775,151.102234 
	C55.902096,151.289459 56.562672,151.683762 56.746529,152.236603 
	C58.994083,158.994751 59.262009,158.565994 64.656319,154.293671 
	C74.155930,146.769974 84.336021,140.106003 94.219398,133.065521 
	C95.397415,132.226364 96.501953,131.284058 97.957092,130.238251 
	C98.569725,131.088150 98.865822,132.089386 98.986893,133.688309 
	C98.203461,134.851913 97.595047,135.417801 96.589409,135.987823 
	C91.745308,135.321686 89.859337,138.812759 87.341080,141.355072 
	C86.016335,142.692459 84.455338,143.795837 82.636566,145.009308 
	C80.778175,145.912430 79.092026,146.600403 77.829079,147.752350 
	C74.916939,150.408554 71.778824,152.987167 69.545799,156.168259 
	C67.457962,159.142471 66.418587,162.852707 64.592140,166.134918 
	C62.194077,164.329422 60.121651,162.628021 58.049217,160.926620 
	C58.049217,160.926620 57.995625,160.979431 57.966827,160.618774 
	C57.024185,158.296585 56.110340,156.335052 55.196495,154.373505 
	C55.217167,153.376663 55.237839,152.379837 55.360775,151.102234 
z"/>
<path fill="#C4E034" opacity="1.000000" stroke="none" 
	d="
M165.097137,126.971237 
	C166.086395,130.014832 167.075638,133.058426 167.820618,136.628662 
	C167.055099,137.449127 166.533859,137.742935 165.748169,137.756805 
	C163.253464,137.682037 160.715546,137.270950 158.848328,138.203201 
	C152.160522,141.542236 145.699875,145.336273 139.077576,148.634674 
	C138.157379,147.098862 137.312943,145.886612 136.468506,144.674362 
	C136.468506,144.674362 136.430389,144.628815 136.384155,144.248657 
	C135.751648,142.289902 135.165375,140.711288 134.949509,139.183411 
	C147.058548,139.548676 156.259781,133.701752 165.097137,126.971237 
z"/>
<path fill="#050E36" opacity="1.000000" stroke="none" 
	d="
M58.030701,161.318390 
	C60.121651,162.628021 62.194077,164.329422 64.844574,166.401047 
	C66.865341,167.064117 68.308044,167.356964 70.148315,167.776627 
	C74.030098,167.855377 77.514313,167.807312 81.439545,167.844452 
	C84.564590,167.877014 87.248619,167.824387 90.335632,167.849487 
	C91.827522,167.875626 92.916428,167.824051 94.385132,167.849731 
	C95.533531,167.868851 96.302132,167.810699 97.516869,167.828400 
	C100.240944,167.915436 102.582321,168.268280 104.782333,167.859772 
	C108.316643,167.203506 111.757477,166.043839 115.585648,165.081696 
	C118.287903,163.313080 120.642319,161.559662 123.313858,159.650085 
	C126.347046,154.704788 127.076981,149.835022 124.253220,144.807678 
	C124.279839,144.795425 124.281723,144.736862 124.227654,144.417664 
	C123.163902,143.002853 122.154221,141.907242 121.006561,140.511795 
	C119.254234,139.137589 117.639885,138.063232 115.994659,136.763565 
	C115.963783,136.538254 115.915207,136.086029 115.981903,136.020813 
	C116.048599,135.955582 116.183662,135.826874 116.536621,135.875946 
	C118.256844,136.276016 119.624107,136.627014 120.991364,136.978027 
	C121.432465,136.988937 121.873558,136.999832 122.694305,137.356781 
	C126.840149,141.789886 129.056030,146.307343 127.042938,151.998871 
	C127.024391,153.064697 127.005844,154.130539 126.958977,155.916367 
	C126.286781,158.759232 125.642906,160.882080 124.999039,163.004944 
	C122.574928,164.997437 120.150826,166.989944 116.895767,168.994171 
	C111.246330,169.108017 106.423080,169.398178 101.610283,169.276154 
	C88.403435,168.941345 75.200981,168.433411 61.996792,167.993988 
	C61.209084,167.680634 60.421371,167.367294 59.315353,167.026001 
	C58.668762,165.235428 58.340473,163.472809 58.030701,161.318390 
z"/>
<path fill="#FAB708" opacity="1.000000" stroke="none" 
	d="
M153.016968,98.968201 
	C154.953217,103.399452 156.889465,107.830704 158.598297,112.675423 
	C158.370880,113.088890 157.988663,113.134880 157.641754,113.044937 
	C155.911743,111.802757 154.528656,110.650513 152.874329,109.272301 
	C152.419800,110.169395 151.703049,111.584023 150.596161,112.996338 
	C142.646301,110.733299 137.382278,117.065933 130.741806,118.334595 
	C129.955597,118.484787 129.568924,120.726364 128.692413,121.997742 
	C127.981750,122.007828 127.575722,122.018654 127.089447,121.617638 
	C127.015213,118.716568 127.021217,116.227341 127.043190,113.556740 
	C127.059166,113.375366 127.078697,113.011726 127.489059,113.008469 
	C135.238831,112.410805 140.701981,108.202835 146.418274,103.840355 
	C146.756348,104.533264 147.274139,105.594521 148.434723,107.973213 
	C150.306702,104.294395 151.661835,101.631302 153.016968,98.968201 
z"/>
<path fill="#CA63FA" opacity="1.000000" stroke="none" 
	d="
M101.165154,123.826294 
	C100.148331,124.528259 99.252220,125.014946 97.767212,125.750458 
	C95.274574,126.420242 93.168579,126.458282 91.506233,127.336281 
	C87.090240,129.668671 83.073486,132.857330 78.507881,134.778458 
	C73.719673,136.793259 68.478073,137.730606 62.849918,139.302109 
	C62.849918,136.349319 62.849918,133.546463 62.849915,130.743591 
	C63.142979,129.984283 63.436039,129.224960 64.238068,128.378601 
	C66.000626,127.365997 67.254227,126.440460 68.191437,125.748520 
	C69.852585,126.871010 71.422501,127.931847 73.433228,128.995728 
	C81.453590,129.912674 87.370369,125.253410 94.370468,122.987305 
	C96.156143,122.660995 97.574280,122.340607 99.219025,122.269379 
	C100.081528,122.719688 100.717415,122.920845 101.353302,123.122002 
	C101.353302,123.122002 101.285873,123.611015 101.165154,123.826294 
z"/>
<path fill="#E4DD25" opacity="1.000000" stroke="none" 
	d="
M165.074539,126.603760 
	C156.259781,133.701752 147.058548,139.548676 134.749176,138.928421 
	C133.668503,137.192261 133.158539,135.761826 133.053314,134.252777 
	C143.574249,135.651703 158.615997,127.623665 161.856827,119.017220 
	C162.921860,121.423576 163.986908,123.829933 165.074539,126.603760 
z"/>
<path fill="#030B18" opacity="1.000000" stroke="none" 
	d="
M62.034851,168.333542 
	C75.200981,168.433411 88.403435,168.941345 101.610283,169.276154 
	C106.423080,169.398178 111.246330,169.108017 116.532097,169.007538 
	C116.764885,170.450195 116.530380,171.891235 115.725014,173.656815 
	C109.103554,173.654846 103.052956,173.328339 97.002357,173.001831 
	C92.310638,173.002319 87.618912,173.002808 82.051254,173.003143 
	C75.783371,171.402603 70.390991,171.473816 64.998222,172.998779 
	C64.023117,171.556885 63.048012,170.114990 62.034851,168.333542 
z"/>
<path fill="#7E77F8" opacity="1.000000" stroke="none" 
	d="
M80.998528,167.759262 
	C77.514313,167.807312 74.030098,167.855377 70.310638,167.456314 
	C70.718239,165.673676 71.361084,164.338181 72.371765,162.991180 
	C73.339005,162.751846 74.159500,162.700836 74.504478,162.269485 
	C79.301376,156.271805 83.919960,150.127945 88.828445,144.224609 
	C91.290443,141.263626 94.251358,138.717468 96.986633,135.983704 
	C97.595047,135.417801 98.203461,134.851913 98.974991,134.017654 
	C100.380447,133.958420 101.622795,134.167557 103.353989,134.479401 
	C103.842827,134.582123 104.047119,134.934494 104.023438,135.190750 
	C103.986473,135.618057 103.973190,135.789108 103.597649,135.976013 
	C101.851097,136.801819 100.169235,137.339157 99.134186,138.469025 
	C94.711411,143.296982 90.936043,148.822525 86.048737,153.090805 
	C81.233330,157.296280 80.561859,162.147522 80.998528,167.759262 
z"/>
<path fill="#F3D922" opacity="1.000000" stroke="none" 
	d="
M161.811737,118.698662 
	C158.615997,127.623665 143.574249,135.651703 133.048462,134.209106 
	C132.638885,134.244080 132.703171,134.184204 132.798370,133.771927 
	C132.931274,132.237457 132.968994,131.115250 133.353821,130.058197 
	C135.511322,130.286285 137.673828,131.161545 139.063934,130.474350 
	C142.763901,128.645264 145.935455,125.707191 149.682938,124.025085 
	C153.845490,122.156685 157.850769,117.613319 157.988663,113.134880 
	C157.988663,113.134880 158.370880,113.088890 158.560516,113.057724 
	C158.750168,113.026566 158.938904,113.024780 158.957428,113.360107 
	C158.975952,113.695442 159.053299,114.173111 159.053299,114.173111 
	C159.957748,115.575439 160.862198,116.977768 161.811737,118.698662 
z"/>
<path fill="#FB9807" opacity="1.000000" stroke="none" 
	d="
M149.708008,90.075333 
	C150.540771,92.015411 151.373550,93.955482 151.931366,96.341782 
	C146.754440,99.332512 141.744690,101.692909 136.984619,104.479782 
	C133.173904,106.710831 129.666565,109.460091 125.873535,111.666992 
	C126.141602,109.222740 126.560738,107.090874 127.167801,104.709091 
	C127.912292,103.636093 128.468842,102.813011 129.420227,101.992401 
	C136.480255,99.089973 143.145432,96.185066 149.907028,93.238144 
	C149.464767,92.209625 149.207428,91.611130 149.038330,90.827858 
	C149.274841,90.407211 149.468658,90.217957 149.708008,90.075333 
z"/>
<path fill="#4ADE51" opacity="1.000000" stroke="none" 
	d="
M172.727905,157.932648 
	C172.679199,158.554382 172.630493,159.176117 171.984894,159.736115 
	C170.457947,158.451172 169.527893,157.227966 168.108353,155.361008 
	C167.165054,157.258316 166.719452,158.665955 165.861023,159.745255 
	C164.896744,160.957642 163.705978,162.462921 162.354935,162.798370 
	C159.338837,163.547211 156.161819,163.647995 152.729462,163.958374 
	C149.871002,160.504471 153.245483,158.794113 154.959015,157.896896 
	C160.097641,155.206268 165.618500,153.245605 170.994781,151.000336 
	C170.999390,151.000610 170.999664,151.009949 171.007019,151.383377 
	C171.585541,153.815414 172.156723,155.874039 172.727905,157.932648 
z"/>
<path fill="#FDA905" opacity="1.000000" stroke="none" 
	d="
M126.024582,111.979370 
	C129.666565,109.460091 133.173904,106.710831 136.984619,104.479782 
	C141.744690,101.692909 146.754440,99.332512 152.064728,96.675896 
	C152.473038,96.563789 152.445953,96.598206 152.380280,96.867432 
	C152.486206,97.417587 152.657776,97.698509 152.829361,97.979431 
	C152.877777,98.140953 152.926208,98.302483 152.995789,98.716110 
	C151.661835,101.631302 150.306702,104.294395 148.434723,107.973213 
	C147.274139,105.594521 146.756348,104.533264 146.418274,103.840355 
	C140.701981,108.202835 135.238831,112.410805 127.262787,112.890884 
	C126.425629,112.510811 126.225105,112.245087 126.024582,111.979370 
z"/>
<path fill="#FB7D06" opacity="1.000000" stroke="none" 
	d="
M149.679398,89.730408 
	C149.468658,90.217957 149.274841,90.407211 148.647522,90.835419 
	C141.951950,93.132072 135.735428,95.236389 129.292511,97.417343 
	C129.195236,99.082649 129.110321,100.536293 129.025391,101.989929 
	C128.468842,102.813011 127.912292,103.636093 126.875641,104.690781 
	C125.929817,104.608253 125.464088,104.294128 124.990387,103.613785 
	C124.299629,101.500793 123.616852,99.753998 123.059883,97.791527 
	C123.387238,97.299171 123.646988,97.097458 124.320305,96.942871 
	C126.118744,95.610313 127.561813,94.305611 129.394012,92.991547 
	C134.331879,91.614594 138.953140,90.437462 143.380447,88.751129 
	C144.548355,88.306274 145.117416,86.289185 145.985748,84.723175 
	C146.269562,83.997124 146.529083,83.541962 146.788605,83.086800 
	C147.742661,85.186363 148.696732,87.285919 149.679398,89.730408 
z"/>
<path fill="#FA4E8F" opacity="1.000000" stroke="none" 
	d="
M110.986015,101.067863 
	C110.912712,101.327316 110.839409,101.586761 110.192261,102.250931 
	C106.747879,103.810852 105.277626,102.139671 103.579887,100.114052 
	C101.671989,97.837692 99.220901,96.016609 96.849854,93.697815 
	C94.770172,91.918358 92.750237,90.546150 90.948685,88.930450 
	C88.872673,87.068611 86.989517,84.991730 85.392380,83.052353 
	C89.360741,84.742874 92.890907,86.570930 96.585388,87.962837 
	C98.580009,88.714317 100.855598,88.720009 103.238068,89.229584 
	C103.650009,89.934914 103.828323,90.472839 104.004074,91.416733 
	C103.981598,96.678337 106.090706,99.925560 110.986015,101.067863 
z"/>
<path fill="#F64EEB" opacity="1.000000" stroke="none" 
	d="
M71.833839,108.896896 
	C72.283936,107.532753 72.734032,106.168602 73.208710,104.442528 
	C74.334785,101.877701 75.436279,99.674805 77.104805,97.290871 
	C78.778915,98.080078 79.885994,99.050323 81.039780,100.364609 
	C84.006615,102.973816 87.020584,105.130287 89.814156,107.542046 
	C91.703346,109.173035 93.282295,111.163368 94.583847,112.995468 
	C92.781204,112.996605 91.394722,112.995255 89.850632,112.692101 
	C86.612656,109.791748 83.532288,107.193192 79.871910,104.105339 
	C79.141060,106.847054 78.789619,108.165443 78.309700,109.965813 
	C77.138039,108.421616 76.322258,107.346451 75.455048,106.203506 
	C74.233910,107.303162 73.214043,108.221565 72.106964,109.074936 
	C72.019753,109.009911 71.833839,108.896896 71.833839,108.896896 
z"/>
<path fill="#6DDF4E" opacity="1.000000" stroke="none" 
	d="
M144.964905,162.035599 
	C144.508301,161.439438 144.051712,160.843277 143.353516,159.812317 
	C143.040405,158.268021 142.968933,157.158493 143.245026,155.896942 
	C146.389008,154.786987 149.538315,154.355179 151.910019,152.764160 
	C157.225143,149.198608 164.519119,150.161835 169.389038,144.984222 
	C170.764221,144.990845 171.764343,144.992294 172.764450,144.993744 
	C173.159012,147.370972 173.553589,149.748199 173.653381,152.338577 
	C172.572281,152.037811 171.785980,151.523880 170.999664,151.009949 
	C170.999664,151.009949 170.999390,151.000610 170.931091,150.654358 
	C168.352554,150.542984 165.666779,150.285294 163.365051,151.105423 
	C156.556671,153.531326 149.071793,155.002960 144.964905,162.035599 
z"/>
<path fill="#5CDE51" opacity="1.000000" stroke="none" 
	d="
M145.118713,162.335938 
	C149.071793,155.002960 156.556671,153.531326 163.365051,151.105423 
	C165.666779,150.285294 168.352554,150.542984 170.926498,150.654083 
	C165.618500,153.245605 160.097641,155.206268 154.959015,157.896896 
	C153.245483,158.794113 149.871002,160.504471 152.717010,164.340088 
	C153.009628,165.540512 152.993774,166.304779 152.977921,167.069061 
	C150.409454,165.591461 147.840988,164.113876 145.118713,162.335938 
z"/>
<path fill="#3E0817" opacity="1.000000" stroke="none" 
	d="
M99.940140,51.941071 
	C102.543228,50.641064 105.084145,49.189499 107.768700,48.088066 
	C109.994957,47.174667 112.390465,46.673798 114.872986,45.942451 
	C119.770683,47.520981 125.152008,49.288589 130.556168,50.983387 
	C133.332321,51.854023 136.058548,52.670128 134.652786,56.806614 
	C133.138962,57.024467 132.133591,56.977001 131.060440,56.563309 
	C130.425278,55.311993 130.057999,54.134525 129.259094,53.587700 
	C122.416702,48.904408 114.686012,49.495720 106.626839,50.031757 
	C104.355942,50.859310 102.439026,51.694427 100.376724,52.382320 
	C100.231339,52.235096 99.940140,51.941071 99.940140,51.941071 
z"/>
<path fill="#FD4FD6" opacity="1.000000" stroke="none" 
	d="
M80.993073,100.020576 
	C79.885994,99.050323 78.778915,98.080078 77.339157,97.047325 
	C77.534920,95.500534 78.063362,94.016243 79.056877,92.469643 
	C80.015907,93.269760 80.509865,94.132187 81.186096,95.315796 
	C83.248878,96.087738 85.129402,96.538498 87.257751,96.990639 
	C87.505585,96.992020 88.001221,96.998474 88.043930,97.348755 
	C92.719978,101.131851 97.353333,104.564659 101.963867,108.294136 
	C101.627754,109.067192 101.314461,109.543587 100.751976,110.015594 
	C100.502785,110.011200 100.004341,110.007568 99.699570,109.847198 
	C93.260895,106.464737 87.126984,103.242653 80.993073,100.020576 
z"/>
<path fill="#37D35C" opacity="1.000000" stroke="none" 
	d="
M153.275604,167.343842 
	C152.993774,166.304779 153.009628,165.540512 153.037918,164.394501 
	C156.161819,163.647995 159.338837,163.547211 162.354935,162.798370 
	C163.705978,162.462921 164.896744,160.957642 165.861023,159.745255 
	C166.719452,158.665955 167.165054,157.258316 168.108353,155.361008 
	C169.527893,157.227966 170.457947,158.451172 171.686584,159.853668 
	C166.548447,164.261917 161.816818,170.202347 153.275604,167.343842 
z"/>
<path fill="#10161F" opacity="1.000000" stroke="none" 
	d="
M209.214066,8.110052 
	C216.468445,11.597270 221.129486,17.723940 224.582092,25.353359 
	C222.549957,25.243818 220.418243,24.779722 217.819061,24.213856 
	C217.871719,23.161919 218.335434,21.758247 217.901459,20.735483 
	C217.241623,19.180464 215.987579,16.707424 214.936661,16.682276 
	C209.016586,16.540592 208.970230,12.720950 209.214066,8.110052 
z"/>
<path fill="#FA6206" opacity="1.000000" stroke="none" 
	d="
M146.809387,82.769684 
	C146.529083,83.541962 146.269562,83.997124 145.589630,84.726028 
	C143.401550,85.390137 141.622818,85.736778 139.868484,86.179962 
	C136.242035,87.096107 132.628571,88.063652 128.756317,89.007202 
	C128.333923,89.003555 128.164948,89.002762 127.997375,88.626770 
	C128.001633,87.501358 128.004471,86.751137 128.389374,85.992493 
	C131.825760,84.840012 135.911606,85.401466 137.253845,80.823456 
	C138.334702,80.090790 139.161911,79.541908 140.144714,79.282089 
	C142.116470,81.955109 143.496078,80.692841 144.971100,79.237335 
	C145.343750,79.680855 145.572937,79.916161 145.802139,80.151466 
	C146.144821,80.918503 146.487503,81.685539 146.809387,82.769684 
z"/>
<path fill="#1D1A06" opacity="1.000000" stroke="none" 
	d="
M132.643738,134.287735 
	C133.158539,135.761826 133.668503,137.192261 134.378784,138.877686 
	C135.165375,140.711288 135.751648,142.289902 136.390747,144.219711 
	C134.892731,142.876373 133.173080,141.303436 131.839554,139.452347 
	C130.564163,137.681931 129.690247,135.622284 128.133179,132.757568 
	C130.948059,129.049667 126.102242,125.533203 124.870071,121.280891 
	C124.212753,119.012413 123.640244,116.719353 123.465775,114.104126 
	C124.943794,113.759941 125.985512,113.749031 127.027222,113.738113 
	C127.021217,116.227341 127.015213,118.716568 127.124039,121.963745 
	C128.463562,125.189140 129.688263,127.656578 130.930603,130.453842 
	C131.533203,131.917175 132.118195,133.050690 132.703171,134.184204 
	C132.703171,134.184204 132.638885,134.244080 132.643738,134.287735 
z"/>
<path fill="#F05CBB" opacity="1.000000" stroke="none" 
	d="
M101.001160,110.019981 
	C101.314461,109.543587 101.627754,109.067192 101.960365,107.931702 
	C99.991127,103.855919 98.002571,100.439232 96.264038,97.016144 
	C96.680717,97.004715 96.847374,96.999710 97.306396,97.157639 
	C99.648331,99.639877 101.559875,102.105110 103.799614,104.223328 
	C105.127945,105.479576 106.973877,106.188530 108.587067,107.143562 
	C107.498894,109.816284 106.410721,112.489006 105.079529,115.117767 
	C103.558067,113.389198 102.279617,111.704590 101.001160,110.019981 
z"/>
<path fill="#F31A08" opacity="1.000000" stroke="none" 
	d="
M131.128220,56.929531 
	C132.133591,56.977001 133.138962,57.024467 134.518005,57.117630 
	C134.891663,57.163322 134.994690,57.576431 135.062195,58.040863 
	C135.431549,58.647457 135.733398,58.789616 136.035248,58.931778 
	C136.035248,58.931778 136.030487,59.005386 136.063095,59.192513 
	C136.095703,59.379635 136.108582,59.802738 136.080856,60.188133 
	C136.453278,61.676323 136.853424,62.779114 137.314514,63.740379 
	C137.375458,63.598858 137.672974,63.679104 137.331192,63.945114 
	C135.282242,64.404839 133.575089,64.598549 131.874161,64.791550 
	C131.001450,65.761810 130.001602,66.873428 129.000519,67.568222 
	C129.286011,64.441170 128.556793,62.760441 125.339348,62.873314 
	C124.584152,62.899803 123.784752,61.666031 123.412170,61.009659 
	C127.631508,62.115173 129.401611,59.561344 131.128220,56.929531 
z"/>
<path fill="#F946B8" opacity="1.000000" stroke="none" 
	d="
M81.003822,94.994614 
	C80.509865,94.132187 80.015907,93.269760 79.287079,92.210464 
	C79.078323,91.608345 79.104454,91.203094 79.396439,90.296898 
	C80.157936,88.874397 80.653587,87.952858 81.407516,87.263878 
	C85.856613,89.847298 90.678627,91.508690 91.616264,96.982788 
	C90.143250,96.993912 89.072235,96.996193 88.001221,96.998474 
	C88.001221,96.998474 87.505585,96.992020 87.239555,96.607048 
	C85.624321,92.696915 83.343369,93.703270 81.003822,94.994614 
z"/>
<path fill="#F85A6B" opacity="1.000000" stroke="none" 
	d="
M111.210251,100.849014 
	C106.090706,99.925560 103.981598,96.678337 104.365891,91.457169 
	C107.465652,92.064819 110.201019,93.037994 112.953781,94.408173 
	C112.978638,96.121346 112.986115,97.437531 112.993584,98.753708 
	C112.473877,99.379189 111.954178,100.004669 111.210251,100.849014 
z"/>
<path fill="#E35FDD" opacity="1.000000" stroke="none" 
	d="
M100.751968,110.015594 
	C102.279617,111.704590 103.558067,113.389198 104.882095,115.388283 
	C103.934776,118.069832 102.941879,120.436897 101.651146,122.962982 
	C100.717415,122.920845 100.081528,122.719688 99.225433,121.868927 
	C99.001961,120.153336 98.998695,119.087349 98.992821,117.651138 
	C98.664009,115.859550 98.337807,114.438202 98.349380,112.950500 
	C99.126228,111.925293 99.565285,110.966431 100.004341,110.007568 
	C100.004341,110.007568 100.502785,110.011200 100.751968,110.015594 
z"/>
<path fill="#F758A4" opacity="1.000000" stroke="none" 
	d="
M108.767502,106.911026 
	C106.973877,106.188530 105.127945,105.479576 103.799614,104.223328 
	C101.559875,102.105110 99.648331,99.639877 97.301773,96.783142 
	C97.005241,95.496292 97.005676,94.746880 97.006119,93.997467 
	C99.220901,96.016609 101.671989,97.837692 103.579887,100.114052 
	C105.277626,102.139671 106.747879,103.810852 109.879303,102.507065 
	C109.742775,103.798477 109.345352,105.238480 108.767502,106.911026 
z"/>
<path fill="#060D15" opacity="1.000000" stroke="none" 
	d="
M127.312805,152.100296 
	C129.056030,146.307343 126.840149,141.789886 123.025230,137.354172 
	C127.656876,137.622635 130.063049,140.546738 131.154495,144.915970 
	C132.026031,148.404846 130.415039,150.578751 127.312805,152.100296 
z"/>
<path fill="#8DDF40" opacity="1.000000" stroke="none" 
	d="
M172.689102,144.653244 
	C171.764343,144.992294 170.764221,144.990845 169.378464,144.640320 
	C168.072586,143.955719 167.087997,143.227661 166.245407,143.365768 
	C164.446457,143.660675 162.721069,144.404343 160.981552,144.602173 
	C162.669235,142.172394 164.340927,140.104568 166.012619,138.036743 
	C166.533859,137.742935 167.055099,137.449127 167.850220,137.034683 
	C169.620651,139.380280 171.117203,141.846512 172.689102,144.653244 
z"/>
<path fill="#010A28" opacity="1.000000" stroke="none" 
	d="
M65.101486,173.388779 
	C70.390991,171.473816 75.783371,171.402603 81.584778,173.005157 
	C81.801636,173.457458 81.600105,174.304153 81.417770,174.300064 
	C76.012260,174.178116 70.608658,173.971756 65.101486,173.388779 
z"/>
<path fill="#010A28" opacity="1.000000" stroke="none" 
	d="
M97.105759,173.390533 
	C103.052956,173.328339 109.103554,173.654846 115.576416,173.994339 
	C115.521606,174.916672 114.963783,176.649323 114.579567,176.611633 
	C108.975258,176.062042 103.393066,175.283905 97.811470,174.517471 
	C97.581253,174.485855 97.408615,174.034866 97.105759,173.390533 
z"/>
<path fill="#F75F47" opacity="1.000000" stroke="none" 
	d="
M113.383698,98.827652 
	C112.986115,97.437531 112.978638,96.121346 112.972282,94.072357 
	C112.983505,92.891464 112.993614,92.443382 113.386368,92.004730 
	C115.505180,92.347397 117.241333,92.680641 118.982101,93.425034 
	C118.306541,95.590950 117.626381,97.345703 116.946228,99.100456 
	C115.888756,99.034164 114.831284,98.967880 113.383698,98.827652 
M115.572433,97.519104 
	C115.572433,97.519104 115.474350,97.574646 115.572433,97.519104 
z"/>
<path fill="#060D15" opacity="1.000000" stroke="none" 
	d="
M120.948471,136.618652 
	C119.624107,136.627014 118.256844,136.276016 116.412750,135.565536 
	C114.290329,134.146912 112.644745,133.087753 110.999161,132.028595 
	C109.594070,129.287552 111.459320,128.134659 113.259972,129.255081 
	C116.144470,131.049866 118.389977,133.871613 120.948471,136.618652 
z"/>
<path fill="#EB971C" opacity="1.000000" stroke="none" 
	d="
M127.043198,113.556747 
	C125.985512,113.749031 124.943794,113.759941 123.511536,113.745926 
	C122.504990,112.033730 121.888992,110.346451 121.460815,108.100296 
	C122.765213,106.354263 123.881790,105.167130 124.998367,103.979996 
	C125.464088,104.294128 125.929817,104.608253 126.687698,104.940689 
	C126.560738,107.090874 126.141602,109.222740 125.873528,111.666992 
	C126.225105,112.245087 126.425629,112.510811 126.852425,112.894135 
	C127.078697,113.011726 127.059166,113.375366 127.043198,113.556747 
z"/>
<path fill="#F1842E" opacity="1.000000" stroke="none" 
	d="
M124.990387,103.613785 
	C123.881790,105.167130 122.765213,106.354263 121.416229,107.763062 
	C120.444359,106.278862 119.704910,104.573013 119.076599,102.200470 
	C120.436516,100.358261 121.685295,99.182732 122.934082,98.007202 
	C123.616852,99.753998 124.299629,101.500793 124.990387,103.613785 
M120.564346,102.511398 
	C120.564346,102.511398 120.480522,102.556694 120.564346,102.511398 
z"/>
<path fill="#F56F2D" opacity="1.000000" stroke="none" 
	d="
M123.059875,97.791519 
	C121.685295,99.182732 120.436516,100.358261 119.046318,101.851837 
	C118.331116,101.334610 117.757324,100.499321 117.064880,99.382248 
	C117.626381,97.345703 118.306541,95.590950 119.243027,93.419022 
	C119.673103,92.996933 119.846855,92.992004 120.392685,92.990189 
	C121.508865,92.996765 122.252945,93.000244 123.136948,93.320900 
	C123.506218,94.748955 123.735573,95.859840 123.964935,96.970718 
	C123.646988,97.097458 123.387238,97.299171 123.059875,97.791519 
z"/>
<path fill="#3E0817" opacity="1.000000" stroke="none" 
	d="
M82.804588,80.795929 
	C84.897896,75.218636 86.991203,69.641335 89.490860,63.985680 
	C89.897209,63.907322 90.098412,64.078026 90.059570,64.393555 
	C89.805138,65.522758 89.589546,66.336426 89.215958,67.471405 
	C88.022827,70.177773 86.987694,72.562836 85.644844,75.131973 
	C84.858887,77.162231 84.380646,79.008408 83.702942,80.902458 
	C83.503471,80.950325 83.128136,81.115997 83.046539,81.036697 
	C82.964951,80.957390 82.804588,80.795929 82.804588,80.795929 
z"/>
<path fill="#010A28" opacity="1.000000" stroke="none" 
	d="
M163.017548,173.140106 
	C161.726440,174.124222 160.761215,174.992462 158.698257,176.848145 
	C158.384598,174.585464 158.189423,173.177505 157.994232,171.769562 
	C160.119965,171.587753 162.245682,171.405945 164.371414,171.224152 
	C164.028748,171.824188 163.686081,172.424225 163.017548,173.140106 
z"/>
<path fill="#060D15" opacity="1.000000" stroke="none" 
	d="
M125.380936,163.001770 
	C125.642906,160.882080 126.286781,158.759232 126.959991,156.316132 
	C128.187057,157.499252 129.384811,159.002594 130.582550,160.505951 
	C128.975983,161.336838 127.369415,162.167725 125.380936,163.001770 
z"/>
<path fill="#050E36" opacity="1.000000" stroke="none" 
	d="
M110.725754,132.290726 
	C112.644745,133.087753 114.290329,134.146912 116.059784,135.516479 
	C116.183662,135.826874 116.048599,135.955582 115.732193,135.995911 
	C115.259338,136.096710 115.102875,136.157196 114.608200,136.050293 
	C112.850021,135.576843 111.430054,135.270782 109.608818,134.919037 
	C108.136192,134.876831 107.064827,134.880310 105.670410,134.785828 
	C104.913940,134.770081 104.480530,134.852280 104.047119,134.934479 
	C104.047119,134.934494 103.842827,134.582123 103.728325,134.414032 
	C105.893333,133.681580 108.172844,133.117218 110.725754,132.290726 
z"/>
<path fill="#0C0B22" opacity="1.000000" stroke="none" 
	d="
M57.001060,129.001068 
	C55.645317,130.267380 54.428322,131.787033 52.852203,132.653183 
	C52.334610,132.937607 50.886089,131.527985 49.863277,130.893051 
	C49.987526,130.425110 50.111774,129.957169 50.236023,129.489227 
	C52.203800,129.327332 54.171577,129.165421 56.568611,129.000702 
	C56.997868,128.997894 57.000000,129.000000 57.001060,129.001068 
z"/>
<path fill="#1D1A06" opacity="1.000000" stroke="none" 
	d="
M136.342255,145.071228 
	C137.312943,145.886612 138.157379,147.098862 139.018478,148.961090 
	C139.399307,150.397751 139.763443,151.184433 140.101898,152.201263 
	C140.076218,152.431412 140.126419,152.891479 140.066315,152.945557 
	C140.006195,152.999619 139.886505,153.108337 139.886505,153.108337 
	C138.662994,150.561584 137.439499,148.014832 136.342255,145.071228 
z"/>
<path fill="#3E0817" opacity="1.000000" stroke="none" 
	d="
M81.149231,87.031311 
	C80.653587,87.952858 80.157936,88.874397 79.419449,89.990677 
	C80.175194,87.157898 81.173782,84.130402 82.488480,80.949417 
	C82.804588,80.795929 82.964951,80.957390 83.015015,81.388062 
	C82.426460,83.556259 81.787849,85.293785 81.149231,87.031311 
z"/>
<path fill="#3E0817" opacity="1.000000" stroke="none" 
	d="
M140.344330,65.724274 
	C141.595871,68.496140 142.847427,71.267998 144.053619,74.507370 
	C144.008270,74.974869 143.800201,75.154106 143.555817,74.913818 
	C142.237183,72.405251 141.162918,70.136971 140.084290,67.561066 
	C140.036453,66.846977 139.992981,66.440514 140.047272,65.955391 
	C140.145020,65.876724 140.344330,65.724274 140.344330,65.724274 
z"/>
<path fill="#3E0817" opacity="1.000000" stroke="none" 
	d="
M137.341003,60.945740 
	C138.281937,61.045967 139.222870,61.146194 140.485382,61.280682 
	C140.376282,62.649807 140.279953,63.858578 140.263977,65.395813 
	C140.344330,65.724274 140.145020,65.876724 139.825592,65.752922 
	C138.895111,64.979111 138.284042,64.329109 137.672974,63.679100 
	C137.672974,63.679104 137.375458,63.598858 137.395172,63.374363 
	C137.390244,62.415157 137.365631,61.680450 137.341003,60.945740 
z"/>
<path fill="#5CDE51" opacity="1.000000" stroke="none" 
	d="
M171.007019,151.383377 
	C171.785980,151.523880 172.572281,152.037811 173.582382,152.748779 
	C173.534317,154.373093 173.262482,155.800385 172.859283,157.580154 
	C172.156723,155.874039 171.585541,153.815414 171.007019,151.383377 
z"/>
<path fill="#3E0817" opacity="1.000000" stroke="none" 
	d="
M94.729713,56.690453 
	C96.244926,55.159592 97.760139,53.628731 99.607742,52.019470 
	C99.940140,51.941071 100.231339,52.235096 100.236687,52.600471 
	C100.137474,53.284882 100.032913,53.603912 99.927643,53.943855 
	C99.926941,53.964764 99.960770,53.940495 99.653023,53.979897 
	C99.064789,54.316704 98.784302,54.614117 98.267715,54.891064 
	C97.670906,55.143642 97.310196,55.416683 96.697861,55.844444 
	C95.968964,56.337479 95.491676,56.675800 94.942123,56.934174 
	C94.869858,56.854221 94.729713,56.690449 94.729713,56.690453 
z"/>
<path fill="#1D1A06" opacity="1.000000" stroke="none" 
	d="
M142.897446,156.048981 
	C142.968933,157.158493 143.040405,158.268021 143.091751,159.667145 
	C142.044083,157.910522 141.016541,155.864273 139.937759,153.463181 
	C139.886505,153.108337 140.006195,152.999619 140.306427,153.055664 
	C140.803345,153.398941 141.000046,153.686172 141.194061,154.262192 
	C141.760086,155.050308 142.328766,155.549637 142.897446,156.048981 
z"/>
<path fill="#050E36" opacity="1.000000" stroke="none" 
	d="
M121.478836,171.405273 
	C121.017792,172.010025 120.433540,172.328705 119.849281,172.647369 
	C119.677444,172.077774 119.505608,171.508163 119.333771,170.938568 
	C120.007729,170.998764 120.681679,171.058975 121.478836,171.405273 
z"/>
<path fill="#3E0817" opacity="1.000000" stroke="none" 
	d="
M145.868805,79.762314 
	C145.572937,79.916161 145.343750,79.680855 144.967880,78.900673 
	C144.480865,77.288567 144.140533,76.221336 143.800201,75.154106 
	C143.800201,75.154106 144.008270,74.974869 144.110992,74.881332 
	C144.787613,76.316254 145.361542,77.844704 145.868805,79.762314 
z"/>
<path fill="#3E0817" opacity="1.000000" stroke="none" 
	d="
M90.802437,61.841614 
	C91.266762,60.918697 91.731094,59.995785 92.588272,59.024963 
	C92.981117,58.977051 93.180069,59.151058 93.124268,59.428177 
	C92.969414,60.068340 92.870354,60.431385 92.550171,60.935707 
	C91.953590,61.440666 91.578140,61.804356 91.102859,62.086155 
	C91.003021,62.004265 90.802437,61.841614 90.802437,61.841614 
z"/>
<path fill="#F72A07" opacity="1.000000" stroke="none" 
	d="
M137.217651,60.726246 
	C137.365631,61.680450 137.390244,62.415157 137.334229,63.515884 
	C136.853424,62.779114 136.453278,61.676323 136.299820,60.247154 
	C136.546509,59.920776 136.991592,60.013794 136.991592,60.013794 
	C137.025833,60.178112 137.060074,60.342434 137.217651,60.726246 
z"/>
<path fill="#10161F" opacity="1.000000" stroke="none" 
	d="
M224.633392,26.537935 
	C225.185715,26.937374 225.554565,27.667833 225.883362,28.704926 
	C225.378845,28.297358 224.914383,27.583157 224.633392,26.537935 
z"/>
<path fill="#3E0817" opacity="1.000000" stroke="none" 
	d="
M92.881821,58.889847 
	C93.253853,58.189625 93.725189,57.576611 94.463120,56.827023 
	C94.729713,56.690449 94.869858,56.854221 94.834534,57.200222 
	C94.259491,58.081169 93.719780,58.616112 93.180069,59.151054 
	C93.180069,59.151058 92.981117,58.977051 92.881821,58.889847 
z"/>
<path fill="#3E0817" opacity="1.000000" stroke="none" 
	d="
M89.795578,63.823204 
	C89.945221,63.248672 90.196503,62.758259 90.625107,62.054726 
	C90.802437,61.841614 91.003021,62.004265 91.056076,62.370899 
	C90.772224,63.184364 90.435318,63.631195 90.098412,64.078026 
	C90.098412,64.078026 89.897209,63.907322 89.795578,63.823204 
z"/>
<path fill="#FB9807" opacity="1.000000" stroke="none" 
	d="
M152.892822,97.730499 
	C152.657776,97.698509 152.486206,97.417587 152.382385,96.888626 
	C152.618851,96.920906 152.787567,97.201233 152.892822,97.730499 
z"/>
<path fill="#3E0817" opacity="1.000000" stroke="none" 
	d="
M135.943802,58.726231 
	C135.733398,58.789616 135.431549,58.647457 135.143356,58.237667 
	C135.449875,58.076469 135.681656,58.260017 135.943802,58.726231 
z"/>
<path fill="#3E0817" opacity="1.000000" stroke="none" 
	d="
M136.946045,59.761787 
	C136.991592,60.013794 136.546509,59.920776 136.327545,59.861755 
	C136.108582,59.802738 136.095703,59.379635 136.090576,59.167908 
	C136.357132,59.140709 136.628830,59.325245 136.946045,59.761787 
z"/>
<path fill="#FAB708" opacity="1.000000" stroke="none" 
	d="
M159.167511,114.052605 
	C159.053299,114.173111 158.975952,113.695442 158.960388,113.454437 
	C159.306412,113.294151 159.418732,113.533707 159.167511,114.052605 
z"/>
<path fill="#B768F7" opacity="1.000000" stroke="none" 
	d="
M62.580956,130.983398 
	C62.849918,133.546463 62.849918,136.349319 62.849918,139.302109 
	C68.478073,137.730606 73.719673,136.793259 78.507881,134.778458 
	C83.073486,132.857330 87.090240,129.668671 91.506233,127.336281 
	C93.168579,126.458282 95.274574,126.420242 97.586014,125.996979 
	C97.710556,126.923965 97.713837,128.360565 97.101265,128.706436 
	C87.912010,133.894806 78.641449,138.939133 69.390915,144.018967 
	C68.958923,144.256180 68.502762,144.765305 68.112770,144.715729 
	C62.226246,143.967590 59.719601,146.679352 61.016117,153.395981 
	C60.493378,153.190872 59.970642,152.985748 59.447903,152.780640 
	C58.527416,151.028625 57.606930,149.276627 56.447781,147.284561 
	C58.243408,141.770752 60.277699,136.496979 62.580956,130.983398 
z"/>
<path fill="#E05BF5" opacity="1.000000" stroke="none" 
	d="
M98.995430,118.021362 
	C98.998695,119.087349 99.001961,120.153336 98.998825,121.619774 
	C97.574280,122.340607 96.156143,122.660995 94.108109,122.722809 
	C88.973969,122.791306 84.469734,123.118370 79.105354,123.507896 
	C77.697029,124.771507 75.344727,126.882095 72.992424,128.992676 
	C71.422501,127.931847 69.852585,126.871010 68.191437,125.748520 
	C67.254227,126.440460 66.000626,127.365997 64.460876,128.160660 
	C66.188667,122.775017 68.202591,117.520256 70.573364,112.098991 
	C70.930222,111.932487 71.125885,112.076927 71.089493,112.458771 
	C71.699013,114.572098 72.344925,116.303574 72.991478,118.419708 
	C73.170166,120.092514 73.348213,121.380661 73.432259,121.988716 
	C76.392845,121.108528 79.235573,119.228935 80.979408,119.962311 
	C84.507401,121.446022 87.184860,121.163048 90.426735,119.000992 
	C93.564407,118.674591 96.279915,118.347977 98.995430,118.021362 
z"/>
<path fill="#050E36" opacity="1.000000" stroke="none" 
	d="
M55.146488,154.837326 
	C56.110340,156.335052 57.024185,158.296585 58.002838,160.607941 
	C53.488388,160.957291 55.449139,157.521652 55.146488,154.837326 
z"/>
<path fill="#E05BF5" opacity="1.000000" stroke="none" 
	d="
M70.834557,111.857422 
	C70.937729,110.953369 71.136566,110.124374 71.584625,109.096146 
	C71.833839,108.896896 72.019753,109.009911 72.046394,109.390488 
	C71.757324,110.539696 71.441605,111.308311 71.125885,112.076927 
	C71.125885,112.076927 70.930222,111.932487 70.834557,111.857422 
z"/>
<path fill="#8B75FC" opacity="1.000000" stroke="none" 
	d="
M96.589409,135.987823 
	C94.251358,138.717468 91.290443,141.263626 88.828445,144.224609 
	C83.919960,150.127945 79.301376,156.271805 74.504478,162.269485 
	C74.159500,162.700836 73.339005,162.751846 72.370255,162.579330 
	C71.088608,157.283554 74.608215,154.979919 77.558281,152.138336 
	C79.687454,150.087463 81.208656,147.405426 83.001015,145.004883 
	C84.455338,143.795837 86.016335,142.692459 87.341080,141.355072 
	C89.859337,138.812759 91.745308,135.321686 96.589409,135.987823 
z"/>
<path fill="#9271F8" opacity="1.000000" stroke="none" 
	d="
M82.636566,145.009308 
	C81.208656,147.405426 79.687454,150.087463 77.558281,152.138336 
	C74.608215,154.979919 71.088608,157.283554 72.002426,162.590820 
	C71.361084,164.338181 70.718239,165.673676 69.913071,167.329498 
	C68.308044,167.356964 66.865341,167.064117 65.170212,166.505127 
	C66.418587,162.852707 67.457962,159.142471 69.545799,156.168259 
	C71.778824,152.987167 74.916939,150.408554 77.829079,147.752350 
	C79.092026,146.600403 80.778175,145.912430 82.636566,145.009308 
z"/>
<path fill="#A7E23C" opacity="1.000000" stroke="none" 
	d="
M140.127579,151.971130 
	C139.763443,151.184433 139.399307,150.397751 139.094238,149.284637 
	C145.699875,145.336273 152.160522,141.542236 158.848328,138.203201 
	C160.715546,137.270950 163.253464,137.682037 165.748169,137.756805 
	C164.340927,140.104568 162.669235,142.172394 160.737396,144.608429 
	C160.477234,144.976639 159.988068,144.985886 159.536301,144.984039 
	C151.624298,144.216278 145.184326,146.217758 140.127579,151.971130 
z"/>
<path fill="#6D7CF9" opacity="1.000000" stroke="none" 
	d="
M81.439545,167.844452 
	C80.561859,162.147522 81.233330,157.296280 86.048737,153.090805 
	C90.936043,148.822525 94.711411,143.296982 99.134186,138.469025 
	C100.169235,137.339157 101.851097,136.801819 103.615257,135.993759 
	C103.995132,135.995636 104.028931,136.030518 103.975700,136.374481 
	C101.947868,139.477951 99.973267,142.237457 97.764160,145.174103 
	C97.349876,145.898575 97.170105,146.445938 96.647049,147.038589 
	C93.110664,151.527344 89.860229,155.931015 86.741486,160.426056 
	C83.928551,164.480362 85.698898,166.699051 89.932648,167.771774 
	C87.248619,167.824387 84.564590,167.877014 81.439545,167.844452 
z"/>
<path fill="#348DFB" opacity="1.000000" stroke="none" 
	d="
M114.946411,136.217712 
	C115.102875,136.157196 115.259338,136.096710 115.665497,136.061127 
	C115.915207,136.086029 115.963783,136.538254 115.944717,137.125641 
	C114.134262,140.839005 112.336716,143.961487 110.553017,147.091843 
	C108.343559,150.969360 105.963966,154.767899 104.068108,158.793747 
	C103.583710,159.822372 104.646202,161.579437 104.988052,163.397766 
	C104.066757,169.020248 99.853043,166.275208 97.073654,166.628113 
	C97.989967,163.019989 98.637352,159.712448 99.949043,156.693542 
	C101.693932,152.677597 103.956291,148.886490 105.998169,144.999390 
	C106.000000,145.000000 105.998779,144.996384 106.358353,144.946991 
	C108.816650,142.270142 110.915375,139.642670 113.286392,136.995697 
	C114.021255,136.723358 114.483833,136.470535 114.946411,136.217712 
z"/>
<path fill="#2194FC" opacity="1.000000" stroke="none" 
	d="
M104.997978,163.001831 
	C104.646202,161.579437 103.583710,159.822372 104.068108,158.793747 
	C105.963966,154.767899 108.343559,150.969360 110.553017,147.091843 
	C112.336716,143.961487 114.134262,140.839005 115.975601,137.350952 
	C117.639885,138.063232 119.254234,139.137589 120.832344,140.825592 
	C118.923531,142.809830 117.050941,144.180435 114.369263,146.143234 
	C117.798637,145.632736 119.903496,145.319412 121.968048,145.348724 
	C121.611961,146.790222 121.296173,147.889084 120.609650,148.991714 
	C118.794373,148.901855 117.349831,148.808228 116.126472,148.728943 
	C115.155708,150.300812 114.434975,151.700241 113.497124,152.934738 
	C111.880600,155.062531 110.148239,157.103897 108.427132,159.150116 
	C107.326813,160.458267 106.159302,161.709915 105.015747,162.990540 
	C105.009583,162.994202 104.997978,163.001831 104.997978,163.001831 
z"/>
<path fill="#4589FB" opacity="1.000000" stroke="none" 
	d="
M105.996338,144.998779 
	C103.956291,148.886490 101.693932,152.677597 99.949043,156.693542 
	C98.637352,159.712448 97.989967,163.019989 97.056046,166.801239 
	C97.065216,167.403442 97.070732,167.752533 97.070732,167.752533 
	C96.302132,167.810699 95.533531,167.868851 94.304306,167.532166 
	C92.897202,166.754532 91.950722,166.371704 91.067657,165.647690 
	C93.085098,161.201721 95.039116,157.096939 96.994507,152.744583 
	C96.995872,152.496994 97.000832,152.001831 97.353622,151.957275 
	C100.806732,150.648972 102.344429,148.412079 102.253777,145.003906 
	C102.500687,145.000488 102.994530,144.995728 103.369797,144.997437 
	C104.495491,144.999023 105.245911,144.998901 105.996338,144.998779 
z"/>
<path fill="#5E82FA" opacity="1.000000" stroke="none" 
	d="
M97.000832,152.001831 
	C97.000832,152.001831 96.995872,152.496994 96.648918,152.788574 
	C94.010513,156.122208 91.549004,159.059814 89.564941,162.290649 
	C89.146606,162.971863 90.478699,164.728027 91.004242,165.988876 
	C91.950722,166.371704 92.897202,166.754532 93.924500,167.454910 
	C92.916428,167.824051 91.827522,167.875626 90.335632,167.849487 
	C85.698898,166.699051 83.928551,164.480362 86.741486,160.426056 
	C89.860229,155.931015 93.110664,151.527344 96.651253,147.456177 
	C96.999443,149.219574 97.000137,150.610703 97.000832,152.001831 
z"/>
<path fill="#069BFA" opacity="1.000000" stroke="none" 
	d="
M120.980385,148.987961 
	C121.296173,147.889084 121.611961,146.790222 122.349808,145.337402 
	C123.275146,144.901245 123.778435,144.819046 124.281723,144.736847 
	C124.281723,144.736862 124.279839,144.795425 124.166351,145.211914 
	C123.703636,147.753342 123.354408,149.878296 122.715576,152.167633 
	C120.936745,153.816254 120.076820,155.203033 122.995865,156.385635 
	C122.996841,157.779831 122.996788,158.793030 122.996727,159.806229 
	C120.642319,161.559662 118.287903,163.313080 115.216179,165.050674 
	C114.004654,165.019440 113.510429,165.004028 113.173294,164.679413 
	C115.062920,162.802261 116.795464,161.234329 118.563248,159.634521 
	C117.986115,157.288727 117.351540,154.709442 116.716957,152.130157 
	C117.179138,152.226898 117.641312,152.323639 118.103485,152.420380 
	C119.062454,151.276230 120.021423,150.132095 120.980385,148.987961 
z"/>
<path fill="#2194FC" opacity="1.000000" stroke="none" 
	d="
M113.016212,164.988632 
	C113.510429,165.004028 114.004654,165.019440 114.868340,165.065857 
	C111.757477,166.043839 108.316643,167.203506 104.782333,167.859772 
	C102.582321,168.268280 100.240944,167.915436 97.516869,167.828400 
	C97.070732,167.752533 97.065216,167.403442 97.082825,167.230301 
	C99.853043,166.275208 104.066757,169.020248 104.988052,163.397766 
	C104.997978,163.001831 105.009583,162.994202 105.403259,162.994781 
	C108.203369,163.659790 110.609787,164.324219 113.016212,164.988632 
z"/>
<path fill="#1E8FE1" opacity="1.000000" stroke="none" 
	d="
M123.313858,159.650085 
	C122.996788,158.793030 122.996841,157.779831 122.998718,156.382904 
	C123.000549,155.999191 123.004509,155.992203 123.258957,155.777115 
	C123.340614,154.371796 123.167824,153.181564 122.997108,151.995056 
	C122.999184,151.998764 123.005188,152.003235 123.005188,152.003235 
	C123.354408,149.878296 123.703636,147.753342 124.139740,145.224167 
	C127.076981,149.835022 126.347046,154.704788 123.313858,159.650085 
z"/>
<path fill="#1E8FE1" opacity="1.000000" stroke="none" 
	d="
M124.227654,144.417648 
	C123.778435,144.819046 123.275146,144.901245 122.390106,144.994766 
	C119.903496,145.319412 117.798637,145.632736 114.369263,146.143234 
	C117.050941,144.180435 118.923531,142.809830 120.970329,141.125443 
	C122.154221,141.907242 123.163902,143.002853 124.227654,144.417648 
z"/>
<path fill="#FBD015" opacity="1.000000" stroke="none" 
	d="
M157.641754,113.044937 
	C157.850769,117.613319 153.845490,122.156685 149.682938,124.025085 
	C145.935455,125.707191 142.763901,128.645264 139.063934,130.474350 
	C137.673828,131.161545 135.511322,130.286285 133.350555,130.061676 
	C133.000153,130.000000 133.004654,129.995712 132.889130,129.782761 
	C132.571823,129.305511 132.315338,129.114792 132.002060,128.998810 
	C132.000000,128.999939 132.003830,128.992828 131.861725,128.671799 
	C131.143417,126.574059 130.567215,124.797348 130.377441,123.005913 
	C136.818695,121.156242 142.934082,119.489838 148.879852,117.351707 
	C150.149902,116.894981 154.781815,116.549728 150.986282,112.998642 
	C151.703049,111.584023 152.419800,110.169395 152.874329,109.272301 
	C154.528656,110.650513 155.911743,111.802757 157.641754,113.044937 
z"/>
<path fill="#FEC40E" opacity="1.000000" stroke="none" 
	d="
M150.596161,112.996338 
	C154.781815,116.549728 150.149902,116.894981 148.879852,117.351707 
	C142.934082,119.489838 136.818695,121.156242 130.165039,122.885239 
	C129.299805,122.574898 129.110107,122.314629 128.997055,121.998489 
	C129.568924,120.726364 129.955597,118.484787 130.741806,118.334595 
	C137.382278,117.065933 142.646301,110.733299 150.596161,112.996338 
z"/>
<path fill="#F3D922" opacity="1.000000" stroke="none" 
	d="
M128.692413,121.997742 
	C129.110107,122.314629 129.299805,122.574898 129.778580,122.899963 
	C130.567215,124.797348 131.143417,126.574059 131.630920,128.809143 
	C131.332458,129.553024 131.122711,129.838531 130.912964,130.124023 
	C129.688263,127.656578 128.463562,125.189140 127.204277,122.375587 
	C127.575722,122.018654 127.981750,122.007828 128.692413,121.997742 
z"/>
<path fill="#D75FFD" opacity="1.000000" stroke="none" 
	d="
M73.433228,128.995728 
	C75.344727,126.882095 77.697029,124.771507 79.105354,123.507896 
	C84.469734,123.118370 88.973969,122.791306 93.740570,122.728729 
	C87.370369,125.253410 81.453590,129.912674 73.433228,128.995728 
z"/>
<path fill="#6D7CF9" opacity="1.000000" stroke="none" 
	d="
M104.023438,135.190735 
	C104.480530,134.852280 104.913940,134.770081 105.675797,135.064529 
	C106.009926,135.626831 106.015617,135.812500 106.012299,136.000641 
	C106.003281,136.003098 105.997108,136.020752 105.668976,136.014282 
	C104.903534,136.015396 104.466232,136.022949 104.028931,136.030518 
	C104.028931,136.030518 103.995132,135.995636 103.977524,135.977890 
	C103.973190,135.789108 103.986473,135.618057 104.023438,135.190735 
z"/>
<path fill="#E4DD25" opacity="1.000000" stroke="none" 
	d="
M130.930603,130.453842 
	C131.122711,129.838531 131.332458,129.553024 131.773010,129.130188 
	C132.003830,128.992828 132.000000,128.999939 132.116791,129.212433 
	C132.434341,129.691208 132.691360,129.881470 133.004654,129.995712 
	C133.004654,129.995712 133.000153,130.000000 133.003418,129.996521 
	C132.968994,131.115250 132.931274,132.237457 132.798370,133.771927 
	C132.118195,133.050690 131.533203,131.917175 130.930603,130.453842 
z"/>
<path fill="#FD8B04" opacity="1.000000" stroke="none" 
	d="
M129.420227,101.992401 
	C129.110321,100.536293 129.195236,99.082649 129.292511,97.417343 
	C135.735428,95.236389 141.951950,93.132072 148.559265,91.020187 
	C149.207428,91.611130 149.464767,92.209625 149.907028,93.238144 
	C143.145432,96.185066 136.480255,99.089973 129.420227,101.992401 
z"/>
<path fill="#FD7004" opacity="1.000000" stroke="none" 
	d="
M129.009766,89.010048 
	C132.628571,88.063652 136.242035,87.096107 139.868484,86.179962 
	C141.622818,85.736778 143.401550,85.390137 145.565353,84.996918 
	C145.117416,86.289185 144.548355,88.306274 143.380447,88.751129 
	C138.953140,90.437462 134.331879,91.614594 129.392181,92.592270 
	C129.004059,91.138252 129.006912,90.074150 129.009766,89.010048 
z"/>
<path fill="#FE6E14" opacity="1.000000" stroke="none" 
	d="
M128.756317,89.007202 
	C129.006912,90.074150 129.004059,91.138252 129.003036,92.601639 
	C127.561813,94.305611 126.118744,95.610313 124.320305,96.942871 
	C123.735573,95.859840 123.506218,94.748955 123.286026,93.028923 
	C124.862122,91.280502 126.429047,90.141235 127.995972,89.001968 
	C128.164948,89.002762 128.333923,89.003555 128.756317,89.007202 
z"/>
<path fill="#FB3D7B" opacity="1.000000" stroke="none" 
	d="
M83.902405,80.854591 
	C84.380646,79.008408 84.858887,77.162231 85.924484,75.349953 
	C88.339821,76.257378 90.167801,77.130898 92.037384,78.340820 
	C93.048363,79.447906 94.017746,80.218575 95.288963,81.153702 
	C97.391640,82.546463 99.192474,83.774757 101.029236,85.329636 
	C101.711586,86.791527 102.358009,87.926849 103.004433,89.062164 
	C100.855598,88.720009 98.580009,88.714317 96.585388,87.962837 
	C92.890907,86.570930 89.360741,84.742874 85.351051,82.737900 
	C84.594109,81.871094 84.248253,81.362846 83.902405,80.854591 
z"/>
<path fill="#F847A6" opacity="1.000000" stroke="none" 
	d="
M83.702942,80.902458 
	C84.248253,81.362846 84.594109,81.871094 84.981285,82.693794 
	C86.989517,84.991730 88.872673,87.068611 90.948685,88.930450 
	C92.750237,90.546150 94.770172,91.918358 96.849854,93.697815 
	C97.005676,94.746880 97.005241,95.496292 97.009415,96.620201 
	C96.847374,96.999710 96.680717,97.004715 95.863739,97.007774 
	C94.148376,96.995193 93.083321,96.984566 92.018265,96.973938 
	C90.678627,91.508690 85.856613,89.847298 81.407516,87.263878 
	C81.787849,85.293785 82.426460,83.556259 83.096603,81.467361 
	C83.128136,81.115997 83.503471,80.950325 83.702942,80.902458 
z"/>
<path fill="#FF4B60" opacity="1.000000" stroke="none" 
	d="
M103.238068,89.229584 
	C102.358009,87.926849 101.711586,86.791527 101.406677,85.329262 
	C102.502708,85.001976 103.257217,85.001640 104.355499,85.043938 
	C107.457581,87.057343 110.215889,89.028130 112.981064,91.248024 
	C112.987915,91.497139 113.003723,91.995308 113.003723,91.995308 
	C112.993614,92.443382 112.983505,92.891464 112.954895,93.675354 
	C110.201019,93.037994 107.465652,92.064819 104.368454,91.051201 
	C103.828323,90.472839 103.650009,89.934914 103.238068,89.229584 
z"/>
<path fill="#FB50FC" opacity="1.000000" stroke="none" 
	d="
M71.089493,112.458771 
	C71.441605,111.308311 71.757324,110.539696 72.133606,109.455521 
	C73.214043,108.221565 74.233910,107.303162 75.455048,106.203506 
	C76.322258,107.346451 77.138039,108.421616 78.309700,109.965813 
	C78.789619,108.165443 79.141060,106.847054 79.871910,104.105339 
	C83.532288,107.193192 86.612656,109.791748 89.847305,112.944420 
	C90.000549,113.666710 89.999512,113.834877 89.580399,114.002205 
	C87.230431,114.316399 85.307091,114.711266 83.363739,114.919250 
	C81.998672,115.065361 80.286674,115.483284 79.280800,114.872322 
	C74.572113,112.012314 73.514870,112.454559 72.990845,118.035049 
	C72.344925,116.303574 71.699013,114.572098 71.089493,112.458771 
z"/>
<path fill="#FD51E4" opacity="1.000000" stroke="none" 
	d="
M99.699570,109.847198 
	C99.565285,110.966431 99.126228,111.925293 97.972694,112.944824 
	C96.505486,113.001328 95.752739,112.997154 95.000000,112.992981 
	C93.282295,111.163368 91.703346,109.173035 89.814156,107.542046 
	C87.020584,105.130287 84.006615,102.973816 81.039780,100.364609 
	C87.126984,103.242653 93.260895,106.464737 99.699570,109.847198 
z"/>
<path fill="#F158F3" opacity="1.000000" stroke="none" 
	d="
M94.583847,112.995468 
	C95.752739,112.997154 96.505486,113.001328 97.634911,113.011169 
	C98.337807,114.438202 98.664009,115.859550 98.992821,117.651138 
	C96.279915,118.347977 93.564407,118.674591 90.425339,118.584427 
	C90.000687,116.779442 89.999580,115.391243 89.998474,114.003052 
	C89.999512,113.834877 90.000549,113.666710 90.004913,113.246216 
	C91.394722,112.995255 92.781204,112.996605 94.583847,112.995468 
z"/>
<path fill="#7AE146" opacity="1.000000" stroke="none" 
	d="
M159.988068,144.985886 
	C159.988068,144.985886 160.477234,144.976639 160.721390,144.970398 
	C162.721069,144.404343 164.446457,143.660675 166.245407,143.365768 
	C167.087997,143.227661 168.072586,143.955719 169.003387,144.635132 
	C164.519119,150.161835 157.225143,149.198608 151.910019,152.764160 
	C149.538315,154.355179 146.389008,154.786987 143.245026,155.896942 
	C142.328766,155.549637 141.760086,155.050308 141.576691,154.257828 
	C143.887741,153.505478 146.023468,153.429428 147.697952,152.511780 
	C151.905731,150.205826 155.905121,147.519623 159.988068,144.985886 
z"/>
<path fill="#F50A07" opacity="1.000000" stroke="none" 
	d="
M96.949478,55.689728 
	C97.310196,55.416683 97.670906,55.143642 98.573532,54.829971 
	C99.397224,54.506393 99.678993,54.223442 99.960770,53.940495 
	C99.960770,53.940495 99.926941,53.964764 100.324432,53.967110 
	C102.901222,52.807518 106.885231,54.519653 106.980820,50.039322 
	C114.686012,49.495720 122.416702,48.904408 129.259094,53.587700 
	C130.057999,54.134525 130.425278,55.311993 131.060440,56.563309 
	C129.401611,59.561344 127.631508,62.115173 123.020523,61.007298 
	C121.265785,61.160557 119.814819,60.969372 119.430359,61.521210 
	C116.197868,66.161026 111.421494,64.876518 106.755112,65.008881 
	C106.505043,65.007202 106.005074,65.010643 105.743088,64.776222 
	C104.687500,59.762226 101.095894,58.581150 97.037781,57.603531 
	C97.000801,56.710949 96.975143,56.200336 96.949478,55.689728 
z"/>
<path fill="#F4131B" opacity="1.000000" stroke="none" 
	d="
M106.626839,50.031757 
	C106.885231,54.519653 102.901222,52.807518 100.325134,53.946201 
	C100.032913,53.603912 100.137474,53.284882 100.382072,52.747696 
	C102.439026,51.694427 104.355942,50.859310 106.626839,50.031757 
z"/>
<path fill="#FD4FC8" opacity="1.000000" stroke="none" 
	d="
M91.616264,96.982788 
	C93.083321,96.984566 94.148376,96.995193 95.613724,97.014191 
	C98.002571,100.439232 99.991127,103.855919 101.983185,107.635040 
	C97.353333,104.564659 92.719978,101.131851 88.043930,97.348755 
	C89.072235,96.996193 90.143250,96.993912 91.616264,96.982788 
z"/>
<path fill="#FD4FC8" opacity="1.000000" stroke="none" 
	d="
M81.186096,95.315796 
	C83.343369,93.703270 85.624321,92.696915 86.991722,96.605667 
	C85.129402,96.538498 83.248878,96.087738 81.186096,95.315796 
z"/>
<path fill="#FC4206" opacity="1.000000" stroke="none" 
	d="
M139.989136,78.993019 
	C139.161911,79.541908 138.334702,80.090790 136.927734,80.763390 
	C135.507568,80.461227 134.636780,79.619972 133.831833,79.678856 
	C129.550247,79.991974 125.285149,80.530655 121.005493,80.616302 
	C120.997459,79.490784 120.998268,78.740204 121.397240,77.983002 
	C125.743721,76.986252 129.646194,75.602402 133.655457,75.135506 
	C136.648041,74.787003 137.194061,73.446068 137.379959,71.009186 
	C138.503357,71.013199 139.252289,71.018715 140.047897,71.375992 
	C140.064026,73.814728 140.033478,75.901695 139.996765,78.240051 
	C139.991364,78.659073 139.992126,78.826706 139.996216,78.997093 
	C139.999542,78.999840 139.989136,78.993019 139.989136,78.993019 
z"/>
<path fill="#FC5509" opacity="1.000000" stroke="none" 
	d="
M121.014343,80.991257 
	C125.285149,80.530655 129.550247,79.991974 133.831833,79.678856 
	C134.636780,79.619972 135.507568,80.461227 136.674088,80.947174 
	C135.911606,85.401466 131.825760,84.840012 127.953331,85.992195 
	C125.103523,85.999390 123.071831,85.998474 120.985184,85.634712 
	C120.621315,83.848824 120.312408,82.425789 120.256210,81.000031 
	C120.677399,80.995293 120.845871,80.993279 121.014343,80.991257 
z"/>
<path fill="#FE5C19" opacity="1.000000" stroke="none" 
	d="
M121.040131,85.997559 
	C123.071831,85.998474 125.103523,85.999390 127.571274,86.000610 
	C128.004471,86.751137 128.001633,87.501358 127.997375,88.626770 
	C126.429047,90.141235 124.862122,91.280502 123.146118,92.711746 
	C122.252945,93.000244 121.508865,92.996765 120.387222,92.554665 
	C120.001480,90.080101 119.993294,88.044174 120.248962,86.005295 
	C120.688576,86.000755 120.864357,85.999153 121.040131,85.997559 
z"/>
<path fill="#FC5509" opacity="1.000000" stroke="none" 
	d="
M140.002930,77.988670 
	C140.033478,75.901695 140.064026,73.814728 140.051025,70.980606 
	C140.034531,69.445206 140.061600,68.656952 140.088654,67.868690 
	C141.162918,70.136971 142.237183,72.405251 143.555817,74.913818 
	C144.140533,76.221336 144.480865,77.288567 144.824432,78.692459 
	C143.496078,80.692841 142.116470,81.955109 140.144714,79.282089 
	C139.989136,78.993019 139.999542,78.999840 140.150955,78.904984 
	C140.359253,78.705620 140.490738,78.551910 140.459946,78.505226 
	C140.334641,78.315208 140.159622,78.157982 140.002930,77.988670 
z"/>
<path fill="#F71502" opacity="1.000000" stroke="none" 
	d="
M107.005180,65.010559 
	C111.421494,64.876518 116.197868,66.161026 119.430359,61.521210 
	C119.814819,60.969372 121.265785,61.160557 122.614044,61.009689 
	C123.784752,61.666031 124.584152,62.899803 125.339348,62.873314 
	C128.556793,62.760441 129.286011,64.441170 128.815277,67.891693 
	C124.752754,69.417755 120.874245,70.203529 116.775803,70.718033 
	C113.372299,68.634697 110.188736,66.822632 107.005180,65.010559 
z"/>
<path fill="#F72A07" opacity="1.000000" stroke="none" 
	d="
M116.995743,70.989304 
	C120.874245,70.203529 124.752754,69.417755 128.816498,68.308517 
	C130.001602,66.873428 131.001450,65.761810 131.874161,64.791550 
	C133.575089,64.598549 135.282242,64.404839 137.331192,63.945114 
	C138.284042,64.329109 138.895111,64.979111 139.727844,65.831589 
	C139.992981,66.440514 140.036453,66.846977 140.084290,67.561066 
	C140.061600,68.656952 140.034531,69.445206 140.004349,70.628845 
	C139.252289,71.018715 138.503357,71.013199 137.377106,70.646042 
	C136.842850,69.386383 136.685928,68.488358 136.644470,68.251152 
	C133.588669,69.870064 130.615189,71.387589 127.699295,73.008667 
	C125.423325,74.273979 123.218887,75.667931 120.608780,76.996567 
	C119.155182,75.657112 118.075455,74.325806 116.996208,72.660370 
	C116.996376,71.880592 116.996056,71.434952 116.995743,70.989304 
z"/>
<path fill="#FE5433" opacity="1.000000" stroke="none" 
	d="
M119.985123,86.008240 
	C119.993294,88.044174 120.001480,90.080101 120.015129,92.551559 
	C119.846855,92.992004 119.673103,92.996933 119.238426,93.007866 
	C117.241333,92.680641 115.505180,92.347397 113.386368,92.004730 
	C113.003723,91.995308 112.987915,91.497139 112.991592,90.831871 
	C113.001472,88.778648 113.007668,87.390701 113.449280,86.001549 
	C115.918167,86.002983 117.951645,86.005615 119.985123,86.008240 
z"/>
<path fill="#F85A6B" opacity="1.000000" stroke="none" 
	d="
M115.523392,97.546875 
	C115.474350,97.574646 115.572433,97.519104 115.523392,97.546875 
z"/>
<path fill="#F56F2D" opacity="1.000000" stroke="none" 
	d="
M120.522430,102.534042 
	C120.480522,102.556694 120.564346,102.511398 120.522430,102.534042 
z"/>
<path fill="#F11E3F" opacity="1.000000" stroke="none" 
	d="
M90.059570,64.393555 
	C90.435318,63.631195 90.772224,63.184364 91.155914,62.452789 
	C91.578140,61.804356 91.953590,61.440666 92.633461,61.010479 
	C92.937881,60.943981 93.102661,61.094467 93.087784,61.441284 
	C94.043182,63.528809 95.013451,65.269516 95.977051,67.392395 
	C95.648285,69.514145 95.326180,71.253708 94.606277,72.995277 
	C93.149460,72.986496 92.090454,72.975716 90.984756,72.618599 
	C90.416702,70.564873 89.895332,68.857491 89.373955,67.150101 
	C89.589546,66.336426 89.805138,65.522758 90.059570,64.393555 
z"/>
<path fill="#F03064" opacity="1.000000" stroke="none" 
	d="
M89.215958,67.471405 
	C89.895332,68.857491 90.416702,70.564873 90.978905,72.989929 
	C91.356178,75.128174 91.692635,76.548752 92.020844,77.978027 
	C92.012611,77.986717 91.995781,78.004417 91.995781,78.004410 
	C90.167801,77.130898 88.339821,76.257378 86.232193,75.165878 
	C86.987694,72.562836 88.022827,70.177773 89.215958,67.471405 
z"/>
<path fill="#5086FD" opacity="1.000000" stroke="none" 
	d="
M105.998169,144.999390 
	C105.245911,144.998901 104.495491,144.999023 103.378845,144.623138 
	C104.007454,141.505020 105.002281,138.762878 105.997108,136.020752 
	C105.997108,136.020752 106.003281,136.003098 106.376213,136.003296 
	C107.836128,135.657242 108.923111,135.310989 110.010086,134.964722 
	C111.430054,135.270782 112.850021,135.576843 114.608200,136.050308 
	C114.483833,136.470535 114.021255,136.723358 112.897034,136.991119 
	C106.939728,137.158722 106.089378,140.781052 105.998779,144.996384 
	C105.998779,144.996384 106.000000,145.000000 105.998169,144.999390 
z"/>
<path fill="#5E82FA" opacity="1.000000" stroke="none" 
	d="
M109.608818,134.919037 
	C108.923111,135.310989 107.836128,135.657242 106.385223,136.000824 
	C106.015617,135.812500 106.009926,135.626831 105.998856,135.162476 
	C107.064827,134.880310 108.136192,134.876831 109.608818,134.919037 
z"/>
<path fill="#8DDF40" opacity="1.000000" stroke="none" 
	d="
M159.536301,144.984039 
	C155.905121,147.519623 151.905731,150.205826 147.697952,152.511780 
	C146.023468,153.429428 143.887741,153.505478 141.579376,153.969040 
	C141.000046,153.686172 140.803345,153.398941 140.366547,153.001587 
	C140.126419,152.891479 140.076218,152.431412 140.101898,152.201263 
	C145.184326,146.217758 151.624298,144.216278 159.536301,144.984039 
z"/>
<path fill="#F11E3F" opacity="1.000000" stroke="none" 
	d="
M96.697861,55.844444 
	C96.975143,56.200336 97.000801,56.710949 96.835922,57.858284 
	C95.464470,59.361500 94.283562,60.227982 93.102661,61.094467 
	C93.102661,61.094467 92.937881,60.943981 92.854584,60.869209 
	C92.870354,60.431385 92.969414,60.068340 93.124268,59.428177 
	C93.719780,58.616112 94.259491,58.081169 94.906799,57.280174 
	C95.491676,56.675800 95.968964,56.337479 96.697861,55.844444 
z"/>
<path fill="#F4131B" opacity="1.000000" stroke="none" 
	d="
M99.653023,53.979897 
	C99.678993,54.223442 99.397224,54.506393 98.809631,54.850433 
	C98.784302,54.614117 99.064789,54.316704 99.653023,53.979897 
z"/>
<path fill="#EF55FE" opacity="1.000000" stroke="none" 
	d="
M89.580399,114.002205 
	C89.999580,115.391243 90.000687,116.779442 90.003189,118.584198 
	C87.184860,121.163048 84.507401,121.446022 80.979408,119.962311 
	C79.235573,119.228935 76.392845,121.108528 73.432259,121.988716 
	C73.348213,121.380661 73.170166,120.092514 72.991478,118.419708 
	C73.514870,112.454559 74.572113,112.012314 79.280800,114.872322 
	C80.286674,115.483284 81.998672,115.065361 83.363739,114.919250 
	C85.307091,114.711266 87.230431,114.316399 89.580399,114.002205 
z"/>
<path fill="#5086FD" opacity="1.000000" stroke="none" 
	d="
M97.353622,151.957275 
	C97.000137,150.610703 96.999443,149.219574 96.994537,147.410858 
	C97.170105,146.445938 97.349876,145.898575 98.164886,145.176147 
	C99.869041,145.003143 100.937950,145.005234 102.006866,145.007324 
	C102.344429,148.412079 100.806732,150.648972 97.353622,151.957275 
z"/>
<path fill="#5E82FA" opacity="1.000000" stroke="none" 
	d="
M102.253777,145.003906 
	C100.937950,145.005234 99.869041,145.003143 98.399399,144.999023 
	C99.973267,142.237457 101.947868,139.477951 103.975700,136.374481 
	C104.466232,136.022949 104.903534,136.015396 105.668976,136.014282 
	C105.002281,138.762878 104.007454,141.505020 103.003578,144.621429 
	C102.994530,144.995728 102.500687,145.000488 102.253777,145.003906 
z"/>
<path fill="#4589FB" opacity="1.000000" stroke="none" 
	d="
M106.358353,144.946991 
	C106.089378,140.781052 106.939728,137.158722 112.624741,137.010620 
	C110.915375,139.642670 108.816650,142.270142 106.358353,144.946991 
z"/>
<path fill="#1696FB" opacity="1.000000" stroke="none" 
	d="
M113.173294,164.679413 
	C110.609787,164.324219 108.203369,163.659790 105.409424,162.991135 
	C106.159302,161.709915 107.326813,160.458267 108.427132,159.150116 
	C110.148239,157.103897 111.880600,155.062531 113.497124,152.934738 
	C114.434975,151.700241 115.155708,150.300812 116.126472,148.728943 
	C117.349831,148.808228 118.794373,148.901855 120.609650,148.991714 
	C120.021423,150.132095 119.062454,151.276230 118.103485,152.420380 
	C117.641312,152.323639 117.179138,152.226898 116.716957,152.130157 
	C117.351540,154.709442 117.986115,157.288727 118.563248,159.634521 
	C116.795464,161.234329 115.062920,162.802261 113.173294,164.679413 
z"/>
<path fill="#5086FD" opacity="1.000000" stroke="none" 
	d="
M91.067657,165.647690 
	C90.478699,164.728027 89.146606,162.971863 89.564941,162.290649 
	C91.549004,159.059814 94.010513,156.122208 96.647552,153.036163 
	C95.039116,157.096939 93.085098,161.201721 91.067657,165.647690 
z"/>
<path fill="#1E8FE1" opacity="1.000000" stroke="none" 
	d="
M122.997688,156.001923 
	C120.076820,155.203033 120.936745,153.816254 122.715576,152.167633 
	C123.005188,152.003235 122.999184,151.998764 122.992096,152.395447 
	C122.991508,153.858826 122.998009,154.925522 123.004509,155.992203 
	C123.004509,155.992203 123.000549,155.999191 122.997688,156.001923 
z"/>
<path fill="#069BFA" opacity="1.000000" stroke="none" 
	d="
M123.258957,155.777115 
	C122.998009,154.925522 122.991508,153.858826 122.990021,152.391739 
	C123.167824,153.181564 123.340614,154.371796 123.258957,155.777115 
z"/>
<path fill="#F3D922" opacity="1.000000" stroke="none" 
	d="
M132.889130,129.782761 
	C132.691360,129.881470 132.434341,129.691208 132.118866,129.211304 
	C132.315338,129.114792 132.571823,129.305511 132.889130,129.782761 
z"/>
<path fill="#FD395F" opacity="1.000000" stroke="none" 
	d="
M104.011726,85.001312 
	C103.257217,85.001640 102.502708,85.001976 101.370758,85.002686 
	C99.192474,83.774757 97.391640,82.546463 95.261719,80.836739 
	C94.619125,79.569656 94.305618,78.784004 94.216110,77.748383 
	C95.718079,77.924568 97.009575,78.314453 98.270836,78.785339 
	C100.187080,79.500771 102.082352,80.272415 103.989517,81.418251 
	C103.998909,82.877983 104.005318,83.939644 104.011726,85.001312 
z"/>
<path fill="#F03064" opacity="1.000000" stroke="none" 
	d="
M93.992104,77.998352 
	C94.305618,78.784004 94.619125,79.569656 94.959885,80.672272 
	C94.017746,80.218575 93.048363,79.447906 92.037384,78.340820 
	C91.995781,78.004417 92.012611,77.986717 92.347656,77.985352 
	C93.119164,77.988777 93.555634,77.993568 93.992104,77.998352 
z"/>
<path fill="#FF464B" opacity="1.000000" stroke="none" 
	d="
M104.355499,85.043930 
	C104.005318,83.939644 103.998909,82.877983 103.995361,81.409760 
	C103.998215,81.003189 104.012001,81.001221 104.409225,81.001831 
	C105.865593,81.007080 106.924728,81.011719 107.997528,81.385468 
	C109.668983,82.837982 111.326782,83.921379 112.990738,85.254303 
	C112.996895,85.503822 113.013863,86.002747 113.013863,86.002747 
	C113.007668,87.390701 113.001472,88.778648 112.984741,90.582756 
	C110.215889,89.028130 107.457581,87.057343 104.355499,85.043930 
z"/>
<path fill="#F4131B" opacity="1.000000" stroke="none" 
	d="
M93.087784,61.441284 
	C94.283562,60.227982 95.464470,59.361500 96.847229,58.240257 
	C101.095894,58.581150 104.687500,59.762226 105.740906,65.190247 
	C106.007851,67.220329 106.014984,68.601974 105.764458,69.990105 
	C105.334984,69.999054 105.163170,70.001511 104.617905,69.995102 
	C101.490868,68.994232 98.737297,68.002228 95.983719,67.010223 
	C95.013451,65.269516 94.043182,63.528809 93.087784,61.441284 
z"/>
<path fill="#F31A08" opacity="1.000000" stroke="none" 
	d="
M106.022125,69.983612 
	C106.014984,68.601974 106.007851,67.220329 106.002899,65.424667 
	C106.005074,65.010643 106.505043,65.007202 106.755112,65.008881 
	C110.188736,66.822632 113.372299,68.634697 116.775803,70.718033 
	C116.996056,71.434952 116.996376,71.880592 116.603241,72.660210 
	C112.813904,71.990654 109.418015,70.987137 106.022125,69.983612 
z"/>
<path fill="#FB2617" opacity="1.000000" stroke="none" 
	d="
M105.764465,69.990105 
	C109.418015,70.987137 112.813904,71.990654 116.602760,72.994339 
	C118.075455,74.325806 119.155182,75.657112 120.613113,77.242767 
	C120.991310,77.497116 120.999084,77.989624 120.999084,77.989624 
	C120.998268,78.740204 120.997459,79.490784 121.005493,80.616310 
	C120.845871,80.993279 120.677399,80.995293 119.818604,80.994637 
	C117.087181,80.991341 115.046074,80.990723 113.004333,80.989807 
	C113.003708,80.989517 113.004990,80.976929 112.962440,80.619644 
	C112.209419,76.426781 109.175217,75.630630 106.011528,74.621666 
	C105.664017,72.837395 105.327682,71.420685 104.991356,70.003967 
	C105.163170,70.001511 105.334984,69.999054 105.764465,69.990105 
z"/>
<path fill="#FB3402" opacity="1.000000" stroke="none" 
	d="
M121.397247,77.983002 
	C120.999084,77.989624 120.991310,77.497116 120.986984,77.250916 
	C123.218887,75.667931 125.423325,74.273979 127.699295,73.008667 
	C130.615189,71.387589 133.588669,69.870064 136.644470,68.251152 
	C136.685928,68.488358 136.842850,69.386383 137.002625,70.647552 
	C137.194061,73.446068 136.648041,74.787003 133.655457,75.135506 
	C129.646194,75.602402 125.743721,76.986252 121.397247,77.983002 
z"/>
<path fill="#FA6206" opacity="1.000000" stroke="none" 
	d="
M139.996765,78.240051 
	C140.159622,78.157982 140.334641,78.315208 140.459946,78.505226 
	C140.490738,78.551910 140.359253,78.705620 140.147629,78.902237 
	C139.992126,78.826706 139.991364,78.659073 139.996765,78.240051 
z"/>
<path fill="#FD4526" opacity="1.000000" stroke="none" 
	d="
M113.004967,80.990112 
	C115.046074,80.990723 117.087181,80.991341 119.565887,80.997353 
	C120.312408,82.425789 120.621315,83.848824 120.985184,85.634712 
	C120.864357,85.999153 120.688576,86.000755 120.248962,86.005295 
	C117.951645,86.005615 115.918167,86.002983 113.449280,86.001549 
	C113.013863,86.002747 112.996895,85.503822 112.996643,84.852898 
	C112.999245,83.131355 113.002106,82.060730 113.004967,80.990112 
z"/>
<path fill="#FC2F4D" opacity="1.000000" stroke="none" 
	d="
M94.216110,77.748383 
	C93.555634,77.993568 93.119164,77.988777 92.355888,77.976662 
	C91.692635,76.548752 91.356178,75.128174 91.025589,73.336266 
	C92.090454,72.975716 93.149460,72.986496 94.972198,73.042686 
	C97.826187,73.725601 99.916451,74.363106 102.114586,75.259338 
	C102.487167,76.012123 102.751869,76.506180 103.050194,77.344482 
	C103.393204,78.792885 103.702606,79.897049 104.012001,81.001221 
	C104.012001,81.001221 103.998215,81.003189 103.992371,81.011688 
	C102.082352,80.272415 100.187080,79.500771 98.270836,78.785339 
	C97.009575,78.314453 95.718079,77.924568 94.216110,77.748383 
z"/>
<path fill="#FB202C" opacity="1.000000" stroke="none" 
	d="
M102.006714,75.000618 
	C99.916451,74.363106 97.826187,73.725601 95.370003,73.040688 
	C95.326180,71.253708 95.648285,69.514145 95.977051,67.392395 
	C98.737297,68.002228 101.490868,68.994232 104.617905,69.995102 
	C105.327682,71.420685 105.664017,72.837395 105.609161,74.625504 
	C104.147552,74.998138 103.077133,74.999374 102.006714,75.000618 
z"/>
<path fill="#FE3A3B" opacity="1.000000" stroke="none" 
	d="
M113.004333,80.989815 
	C113.002106,82.060730 112.999245,83.131355 112.990479,84.603378 
	C111.326782,83.921379 109.668983,82.837982 108.004501,81.378403 
	C107.997818,81.002220 108.007584,80.991997 108.423759,80.993073 
	C110.228287,80.988411 111.616638,80.982674 113.004990,80.976929 
	C113.004990,80.976929 113.003708,80.989517 113.004333,80.989815 
z"/>
<path fill="#FE3A3B" opacity="1.000000" stroke="none" 
	d="
M104.409225,81.001831 
	C103.702606,79.897049 103.393204,78.792885 103.398895,77.384674 
	C105.145172,78.384422 106.576378,79.688210 108.007584,80.991997 
	C108.007584,80.991997 107.997818,81.002220 107.990845,81.009293 
	C106.924728,81.011719 105.865593,81.007080 104.409225,81.001831 
z"/>
<path fill="#FC302A" opacity="1.000000" stroke="none" 
	d="
M108.423759,80.993073 
	C106.576378,79.688210 105.145172,78.384422 103.365280,77.040436 
	C102.751869,76.506180 102.487167,76.012123 102.114586,75.259338 
	C103.077133,74.999374 104.147552,74.998138 105.620338,74.993057 
	C109.175217,75.630630 112.209419,76.426781 112.962440,80.619644 
	C111.616638,80.982674 110.228287,80.988411 108.423759,80.993073 
z"/>
</svg>